<svg id="レイヤー_1" data-name="レイヤー 1" xmlns="http://www.w3.org/2000/svg" viewBox="0 0 249.57 42.33"><defs><style>.cls-1{fill:#0c5caa;}.cls-2,.cls-3{fill:#fff;}.cls-2,.cls-4{stroke:#0c5caa;}.cls-4{fill:none;}</style></defs><path class="cls-1" d="M43.12,21.17c0,11.41-9.51,20.66-21.24,20.66S.62,32.58.62,21.17,10.14.5,21.88.5,43.12,9.75,43.12,21.17Z"/><path class="cls-2" d="M26.79,19.25c-2.58-9.17-13-6-16.62-2.88"/><path class="cls-2" d="M38.21,14.79c.5-3.37-7.71-12.54-19.25-3.37"/><polygon class="cls-3" points="5.96 34.83 15.79 40.75 15.63 24.33 5.96 21.5 5.96 34.83"/><polygon class="cls-3" points="17.38 41.17 27.04 41.33 26.46 19.08 17.46 16.33 17.38 41.17"/><polygon class="cls-3" points="29.46 40.42 38.46 34.17 37.79 14.58 28.46 12.08 29.46 40.42"/><polygon class="cls-3" points="9.38 37.67 6.04 34.67 5.84 25.99 5.54 23.17 4.04 21.33 8.08 22.04 9.71 20.25 10.14 22.63 15.88 40.92 14.46 40.5 9.38 37.67"/><polygon class="cls-3" points="20.96 41.83 17.38 41.25 17.4 23.3 16.79 20.17 13.79 16.5 18.63 16.92 20.52 18.69 20.86 20.6 27.04 41.08 25.04 41.5 20.96 41.83"/><polygon class="cls-3" points="33.38 38.58 29.38 40.42 28.54 18.5 27.21 14.58 24.54 12.42 29.38 11.08 30.75 13.16 38.29 14.5 38.29 33.5 36.96 35.75 33.38 38.58"/><path class="cls-2" d="M15.88,25.17C16,20,9.62,14.83,2.62,21.17"/><line class="cls-4" x1="15.96" y1="40.83" x2="15.96" y2="24.83"/><line class="cls-4" x1="5.79" y1="34.67" x2="5.79" y2="25.5"/><path class="cls-4" d="M5.79,25.83c0-2.48-1.6-4.58-3.17-4.58"/><path class="cls-4" d="M17.29,24.17c0-3.87-2.17-8.25-7.33-7.75"/><line class="cls-4" x1="17.29" y1="41.33" x2="17.29" y2="23.67"/><line class="cls-4" x1="27.13" y1="41.33" x2="26.79" y2="19.17"/><line class="cls-4" x1="29.13" y1="40.67" x2="28.29" y2="18.17"/><path class="cls-4" d="M28.33,18.42c0-3.67-3.41-7.17-9.29-6.92"/><line class="cls-4" x1="38.63" y1="33.75" x2="38.27" y2="14.23"/><path class="cls-4" d="M43,21.17c0,11.41-9.51,20.66-21.25,20.66S.5,32.58.5,21.17,10,.5,21.75.5,43,9.75,43,21.17Z"/><path class="cls-1" d="M249.48,14.52c0,1.24.25,2.17-1.69,2.08H216.2c-1.55-.08-1.34-.76-1.34-2v-.12c0-1.25-.38-2.38,1.34-2.38h31.59c1.86-.08,1.69,1.09,1.69,2.34Z"/><path class="cls-1" d="M208.15,18.35c0,1.24.25,2.17-1.69,2.09H174.87c-1.55-.09-1.35-.76-1.35-2v-.13c0-1.24-.37-2.37,1.35-2.37h31.59c1.86-.09,1.69,1.09,1.69,2.33Z"/><path class="cls-1" d="M135,37.62c0,1.38.16,2.4-1.08,2.31H113.78c-1-.09-.86-.84-.86-2.22v-.14c0-1.37-.24-2.63.86-2.63h20.13c1.18-.09,1.08,1.21,1.08,2.59Z"/><path class="cls-1" d="M134.57,15.19c0,1.24.25,2.16-1.69,2.08h-31.6c-1.55-.08-1.34-.76-1.34-2v-.13c0-1.24-.37-2.37,1.34-2.37h31.6c1.85-.08,1.69,1.09,1.69,2.33Z"/><path class="cls-1" d="M136.55,24.94c0,1.24.27,2.16-1.82,2.08H100.64c-1.67-.08-1.45-.76-1.45-2v-.13c0-1.24-.4-2.37,1.45-2.37h34.09c2-.08,1.82,1.09,1.82,2.33Z"/><rect class="cls-1" x="109.48" y="14.44" width="11.08" height="20.67"/><path class="cls-1" d="M109.48,34.52c0,2.95,1.94,5.33,4.34,5.33"/><path class="cls-1" d="M149.23,34.31c.42,6.63.25,5.38-5.46,5.46h0c-6-.33-5.37.58-5.45-5.46V17.89c0-5.7-.17-5.37,5.45-5.45h0c5.71.16,5.21-1.09,5.46,5.45Z"/><path class="cls-1" d="M118.23,35.39a4.38,4.38,0,0,1-4.37,4.38h0a4.38,4.38,0,0,1-4.38-4.38v-1A4.38,4.38,0,0,1,113.86,30h0a4.37,4.37,0,0,1,4.37,4.37Z"/><path class="cls-1" d="M171.82,25.94c-.17,3.08.41,3.41-4.09,3.66h-16.5c-7.08.17-3.83-1.72-3.83-3.83h0c0-2.12-1.59-4.08,3.83-3.83h16.5c5-.25,3.75,1.08,4.08,3.83Z"/><path class="cls-1" d="M211.73,28.19a4.66,4.66,0,0,1-4.66,4.66h0a4.67,4.67,0,0,1-4.67-4.66V20.94a5.11,5.11,0,0,1,4.75-5.09l.17.09c5.83-.17,4.41,1.33,4.41,5Z"/><path class="cls-1" d="M210.23,30a2.75,2.75,0,0,1-2.75,2.75H197.9c-2.83.33-2.75-1.23-2.75-2.75h0c0-1.52,0-2.58,2.75-2.75h9.58A2.75,2.75,0,0,1,210.23,30Z"/><path class="cls-1" d="M191.6,33.15c1.55,7.87.26,6.63-4.12,6.79h-.08c-6.5,0-5.42.23-6.25-5.18l-2.71-17.63c-.79-6.53-2.62-6.44,4.33-6.61h0c5.88-.42,5.55.42,6.12,5Z"/><path class="cls-1" d="M230.27,32.55c2.79,8.55,2.79,7-2.37,7.39h-.17c-7.16.16-4.91.16-6.61-4.27l-2.64-7.73c-1.91-7.17-3.33-7,2.84-7.17h.08c5.5-.5,5.31,1.35,6.23,4.05Z"/><path class="cls-1" d="M249.32,24.19c0,2.83-3.5,9.91-12.42,9.91L235,28.6c4.25-2.33,4.34-4.46,4.34-7.29V16c0-2.83,4.08-2.42,6.91-2.42l.59-.08c2.83,0,2.5-3,2.75,6.21Z"/><path class="cls-1" d="M240.65,31.39a2.79,2.79,0,0,1-2.79,2.8h-7c-1.55,0-4.5-1.25-4.5-2.8h0a2.79,2.79,0,0,1,2.79-2.79l6-.25c1.54,0,5.5,1.5,5.5,3Z"/><rect class="cls-1" x="55.98" y="14.16" width="6.38" height="0.75"/><rect class="cls-1" x="58.6" y="12.28" width="1.38" height="12.5"/><polygon class="cls-1" points="57.42 24.47 56.04 24.47 57.42 14.59 58.79 14.59 57.42 24.47"/><polygon class="cls-1" points="62.92 22.97 61.54 22.97 59.6 14.66 60.98 14.66 62.92 22.97"/><polygon class="cls-1" points="64.6 16.97 62.85 16.97 63.73 12.22 65.48 12.22 64.6 16.97"/><rect class="cls-1" x="64.35" y="14.28" width="6.69" height="0.75"/><rect class="cls-1" x="66.54" y="12.09" width="1.87" height="12.69"/><rect class="cls-1" x="63.29" y="17.84" width="8.06" height="0.88"/><polygon class="cls-1" points="65.42 24.78 63.98 24.78 65.17 18.53 66.6 18.53 65.42 24.78"/><polygon class="cls-1" points="71.73 24.59 70.23 24.59 68.29 18.66 69.79 18.66 71.73 24.59"/><rect class="cls-1" x="72.6" y="13.97" width="15.31" height="0.94"/><rect class="cls-1" x="85.1" y="11.84" width="2.63" height="1.06"/><polygon class="cls-1" points="87.92 24.47 85.35 24.47 80.79 11.97 83.35 11.97 87.92 24.47"/><rect class="cls-1" x="73.79" y="16.91" width="7.62" height="1"/><rect class="cls-1" x="76.54" y="17.72" width="2.56" height="6.19"/><rect class="cls-1" x="72.92" y="23.53" width="10.19" height="1.06"/><polygon class="cls-1" points="59.23 31.03 55.98 30.97 61.98 26.72 65.23 26.78 59.23 31.03"/><polygon class="cls-1" points="71.54 31.03 68.23 31.03 62.17 26.66 65.48 26.66 71.54 31.03"/><rect class="cls-1" x="57.04" y="32.28" width="13.69" height="1"/><rect class="cls-1" x="56.48" y="34.53" width="15.06" height="0.94"/><polygon class="cls-1" points="59.1 39.78 56.85 39.78 58.92 35.22 61.17 35.22 59.1 39.78"/><rect class="cls-1" x="58.35" y="38.53" width="12.19" height="1.25"/><polygon class="cls-1" points="66.98 36.66 69.85 36.66 71.23 39.72 68.35 39.72 66.98 36.66"/><rect class="cls-1" x="75.29" y="26.59" width="2.19" height="2.31"/><rect class="cls-1" x="73.23" y="28.41" width="5.75" height="1.19"/><polygon class="cls-1" points="74.6 36.66 72.35 36.66 77.23 28.47 79.48 28.47 74.6 36.66"/><rect class="cls-1" x="75.42" y="31.47" width="2" height="8.06"/><rect class="cls-1" x="77.1" y="32.91" width="2" height="2.5"/><rect class="cls-1" x="80.29" y="29.84" width="7.06" height="0.88"/><rect class="cls-1" x="82.54" y="26.53" width="3" height="12.37"/><rect class="cls-1" x="79.85" y="38.41" width="8.38" height="1.31"/></svg>