<svg id="レイヤー_1" data-name="レイヤー 1" xmlns="http://www.w3.org/2000/svg" viewBox="0 0 149.94 25.8"><defs><style>.cls-1{fill:#0c5caa;}.cls-2,.cls-3{fill:#fff;}.cls-2,.cls-4{stroke:#0c5caa;}.cls-4{fill:none;}</style></defs><path class="cls-1" d="M26.07,12.9A12.57,12.57,0,0,1,13.32,25.3,12.57,12.57,0,0,1,.58,12.9,12.57,12.57,0,0,1,13.32.5,12.57,12.57,0,0,1,26.07,12.9Z"/><path class="cls-2" d="M16.27,11.75c-1.55-5.5-7.8-3.57-10-1.72"/><path class="cls-2" d="M23.12,9.08c.3-2-4.62-7.53-11.55-2"/><polygon class="cls-3" points="3.77 21.1 9.68 24.65 9.57 14.8 3.77 13.1 3.77 21.1"/><polygon class="cls-3" points="10.62 24.9 16.43 25 16.07 11.65 10.68 10 10.62 24.9"/><polygon class="cls-3" points="17.87 24.45 23.27 20.7 22.87 8.95 17.27 7.45 17.87 24.45"/><polygon class="cls-3" points="5.82 22.8 3.82 21 3.71 15.8 3.52 14.1 2.62 13 5.05 13.43 6.02 12.35 6.28 13.78 9.72 24.75 8.87 24.5 5.82 22.8"/><polygon class="cls-3" points="12.78 25.3 10.62 24.95 10.64 14.18 10.28 12.3 8.47 10.1 11.37 10.35 12.51 11.41 12.72 12.56 16.43 24.85 15.22 25.1 12.78 25.3"/><polygon class="cls-3" points="20.23 23.35 17.82 24.45 17.32 11.3 16.52 8.95 14.93 7.65 17.82 6.85 18.65 8.1 23.18 8.9 23.18 20.3 22.37 21.65 20.23 23.35"/><path class="cls-2" d="M9.72,15.3c.1-3.1-3.75-6.2-8-2.4"/><line class="cls-4" x1="9.77" y1="24.7" x2="9.77" y2="15.1"/><line class="cls-4" x1="3.67" y1="21" x2="3.67" y2="15.5"/><path class="cls-4" d="M3.67,15.7c0-1.49-1-2.75-1.9-2.75"/><path class="cls-4" d="M10.57,14.7c0-2.32-1.3-4.95-4.4-4.65"/><line class="cls-4" x1="10.57" y1="25" x2="10.57" y2="14.4"/><line class="cls-4" x1="16.47" y1="25" x2="16.27" y2="11.7"/><line class="cls-4" x1="17.67" y1="24.6" x2="17.17" y2="11.1"/><path class="cls-4" d="M17.2,11.25c0-2.2-2-4.3-5.58-4.15"/><line class="cls-4" x1="23.37" y1="20.45" x2="23.16" y2="8.74"/><path class="cls-4" d="M26,12.9A12.58,12.58,0,0,1,13.25,25.3,12.58,12.58,0,0,1,.5,12.9,12.58,12.58,0,0,1,13.25.5,12.58,12.58,0,0,1,26,12.9Z"/><path class="cls-1" d="M149.89,8.91c0,.75.15,1.3-1,1.25h-19c-.93-.05-.8-.45-.8-1.2V8.89c0-.75-.23-1.43.8-1.43h19c1.11,0,1,.66,1,1.4Z"/><path class="cls-1" d="M125.09,11.21c0,.75.15,1.3-1,1.25h-19c-.93-.05-.8-.45-.8-1.2v-.07c0-.75-.23-1.43.8-1.43h19c1.11,0,1,.66,1,1.4Z"/><path class="cls-1" d="M81.19,22.77c0,.83.1,1.44-.64,1.39H68.46c-.59-.06-.51-.5-.51-1.33v-.09c0-.82-.14-1.58.51-1.58H80.55c.71-.05.64.73.64,1.56Z"/><path class="cls-1" d="M80.94,9.31c0,.75.15,1.3-1,1.25H61c-.93-.05-.81-.45-.81-1.2V9.29c0-.75-.22-1.43.81-1.43h19c1.12-.05,1,.66,1,1.4Z"/><path class="cls-1" d="M82.13,15.16c0,.75.16,1.3-1.09,1.25H60.58c-1-.05-.86-.45-.86-1.2v-.07c0-.75-.25-1.43.86-1.43H81c1.2-.05,1.09.66,1.09,1.4Z"/><rect class="cls-1" x="65.89" y="8.86" width="6.65" height="12.4"/><path class="cls-1" d="M65.89,20.91a2.94,2.94,0,0,0,2.6,3.2"/><path class="cls-1" d="M89.74,20.79c.25,4,.15,3.22-3.28,3.27h0c-3.57-.2-3.22.35-3.27-3.27V10.94c0-3.43-.1-3.23,3.27-3.28h0c3.43.1,3.13-.65,3.28,3.28Z"/><path class="cls-1" d="M71.14,21.44a2.62,2.62,0,0,1-2.63,2.62h0a2.62,2.62,0,0,1-2.62-2.62v-.6a2.62,2.62,0,0,1,2.62-2.63h0a2.63,2.63,0,0,1,2.63,2.63Z"/><path class="cls-1" d="M103.29,15.76c-.1,1.85.25,2-2.45,2.2h-9.9c-4.25.1-2.3-1-2.3-2.3h0c0-1.27-1-2.45,2.3-2.3h9.9c3-.15,2.25.65,2.45,2.3Z"/><path class="cls-1" d="M127.24,17.11a2.8,2.8,0,0,1-2.8,2.8h0a2.8,2.8,0,0,1-2.8-2.8V12.76a3.06,3.06,0,0,1,2.85-3l.1,0c3.5-.1,2.65.8,2.65,3Z"/><path class="cls-1" d="M126.34,18.21a1.65,1.65,0,0,1-1.65,1.65h-5.75c-1.7.2-1.65-.74-1.65-1.65h0c0-.91,0-1.55,1.65-1.65h5.75a1.65,1.65,0,0,1,1.65,1.65Z"/><path class="cls-1" d="M115.16,20.09c.93,4.72.16,4-2.47,4.07h0c-3.9,0-3.25.14-3.75-3.11l-1.63-10.57c-.47-3.92-1.57-3.87,2.6-4h0c3.53-.25,3.33.25,3.67,3Z"/><path class="cls-1" d="M138.36,19.73c1.68,5.13,1.68,4.18-1.42,4.43h-.1c-4.3.1-3,.1-4-2.56L131.29,17c-1.15-4.31-2-4.21,1.7-4.31h0c3.3-.3,3.19.81,3.74,2.43Z"/><path class="cls-1" d="M149.79,14.71c0,1.7-2.1,5.95-7.45,5.95l-1.15-3.3c2.55-1.4,2.6-2.68,2.6-4.37V9.81c0-1.7,2.45-1.45,4.15-1.45l.35,0c1.7,0,1.5-1.8,1.65,3.73Z"/><path class="cls-1" d="M144.59,19a1.68,1.68,0,0,1-1.68,1.67h-4.22c-.93,0-2.7-.75-2.7-1.67h0a1.68,1.68,0,0,1,1.67-1.68l3.63-.15c.92,0,3.3.9,3.3,1.83Z"/><rect class="cls-1" x="33.79" y="8.69" width="3.83" height="0.45"/><rect class="cls-1" x="35.36" y="7.57" width="0.82" height="7.5"/><polygon class="cls-1" points="34.65 14.88 33.82 14.88 34.65 8.96 35.48 8.96 34.65 14.88"/><polygon class="cls-1" points="37.95 13.98 37.12 13.98 35.96 8.99 36.79 8.99 37.95 13.98"/><polygon class="cls-1" points="38.96 10.38 37.91 10.38 38.44 7.53 39.49 7.53 38.96 10.38"/><rect class="cls-1" x="38.81" y="8.77" width="4.01" height="0.45"/><rect class="cls-1" x="40.12" y="7.46" width="1.12" height="7.61"/><rect class="cls-1" x="38.17" y="10.91" width="4.84" height="0.53"/><polygon class="cls-1" points="39.45 15.07 38.59 15.07 39.3 11.32 40.16 11.32 39.45 15.07"/><polygon class="cls-1" points="43.24 14.96 42.34 14.96 41.17 11.39 42.07 11.39 43.24 14.96"/><rect class="cls-1" x="43.76" y="8.58" width="9.19" height="0.56"/><rect class="cls-1" x="51.26" y="7.31" width="1.58" height="0.64"/><polygon class="cls-1" points="52.95 14.88 51.41 14.88 48.67 7.38 50.21 7.38 52.95 14.88"/><rect class="cls-1" x="44.47" y="10.34" width="4.58" height="0.6"/><rect class="cls-1" x="46.12" y="10.83" width="1.54" height="3.71"/><rect class="cls-1" x="43.95" y="14.32" width="6.11" height="0.64"/><polygon class="cls-1" points="35.74 18.82 33.79 18.78 37.39 16.23 39.34 16.27 35.74 18.82"/><polygon class="cls-1" points="43.12 18.82 41.14 18.82 37.5 16.19 39.49 16.19 43.12 18.82"/><rect class="cls-1" x="34.42" y="19.57" width="8.21" height="0.6"/><rect class="cls-1" x="34.09" y="20.92" width="9.04" height="0.56"/><polygon class="cls-1" points="35.66 24.07 34.31 24.07 35.55 21.33 36.9 21.33 35.66 24.07"/><rect class="cls-1" x="35.21" y="23.32" width="7.31" height="0.75"/><polygon class="cls-1" points="40.39 22.19 42.11 22.19 42.94 24.03 41.21 24.03 40.39 22.19"/><rect class="cls-1" x="45.37" y="16.16" width="1.31" height="1.39"/><rect class="cls-1" x="44.14" y="17.24" width="3.45" height="0.71"/><polygon class="cls-1" points="44.96 22.19 43.61 22.19 46.54 17.28 47.89 17.28 44.96 22.19"/><rect class="cls-1" x="45.45" y="19.08" width="1.2" height="4.84"/><rect class="cls-1" x="46.46" y="19.94" width="1.2" height="1.5"/><rect class="cls-1" x="48.37" y="18.11" width="4.24" height="0.53"/><rect class="cls-1" x="49.72" y="16.12" width="1.8" height="7.42"/><rect class="cls-1" x="48.11" y="23.24" width="5.02" height="0.79"/></svg>