<?xml version="1.0" encoding="utf-8"?>
<svg height="44px" viewBox="0 0 44 44" width="44px" xmlns="http://www.w3.org/2000/svg" xmlns:bx="https://boxy-svg.com">
  <path d="M 40.133 2.978 L 3.867 2.978 C 1.735 2.978 0 4.713 0 6.845 L 0 37.783 C 0 39.915 1.735 41.65 3.867 41.65 L 40.133 41.65 C 42.265 41.65 44 39.915 44 37.783 L 44 6.845 C 44 4.713 42.265 2.978 40.133 2.978 Z M 41.422 37.783 C 41.422 38.494 40.844 39.072 40.133 39.072 L 3.867 39.072 C 3.156 39.072 2.578 38.494 2.578 37.783 L 2.578 6.845 C 2.578 6.134 3.156 5.556 3.867 5.556 L 40.133 5.556 C 40.844 5.556 41.422 6.134 41.422 6.845 Z M 41.422 37.783" bx:origin="0.5 0.49188"/>
  <path d="M 37.468 8.134 L 6.532 8.134 C 5.82 8.134 5.242 8.712 5.242 9.424 L 5.242 24.892 C 5.242 25.604 5.82 26.181 6.532 26.181 L 7.82 26.181 L 7.82 30.049 C 7.82 30.761 8.397 31.337 9.109 31.337 L 12.976 31.337 L 12.976 35.205 C 12.976 35.916 13.554 36.493 14.266 36.493 L 29.734 36.493 C 30.446 36.493 31.024 35.916 31.024 35.205 L 31.024 31.337 L 34.891 31.337 C 35.603 31.337 36.18 30.761 36.18 30.049 L 36.18 26.181 L 37.468 26.181 C 38.181 26.181 38.758 25.604 38.758 24.892 L 38.758 9.424 C 38.758 8.712 38.181 8.134 37.468 8.134 Z M 36.18 23.603 L 34.891 23.603 C 34.178 23.603 33.601 24.18 33.601 24.892 L 33.601 28.759 L 29.734 28.759 C 29.022 28.759 28.446 29.336 28.446 30.049 L 28.446 33.916 L 15.554 33.916 L 15.554 30.049 C 15.554 29.336 14.978 28.759 14.266 28.759 L 10.399 28.759 L 10.399 24.892 C 10.399 24.18 9.822 23.603 9.109 23.603 L 7.82 23.603 L 7.82 10.712 L 36.18 10.712 Z M 36.18 23.603" bx:origin="0.5 0.488945"/>
  <path d="M 9.109 33.916 L 6.532 33.916 C 5.82 33.916 5.242 34.493 5.242 35.205 C 5.242 35.916 5.82 36.493 6.532 36.493 L 9.109 36.493 C 9.822 36.493 10.399 35.916 10.399 35.205 C 10.399 34.493 9.822 33.916 9.109 33.916 Z M 9.109 33.916" bx:origin="3.249564 -4.623988"/>
  <path d="M 37.468 33.916 L 34.891 33.916 C 34.178 33.916 33.601 34.493 33.601 35.205 C 33.601 35.916 34.178 36.493 34.891 36.493 L 37.468 36.493 C 38.181 36.493 38.758 35.916 38.758 35.205 C 38.758 34.493 38.181 33.916 37.468 33.916 Z M 37.468 33.916" bx:origin="-2.249565 -4.623988"/>
  <path d="M 11.687 21.025 C 12.399 21.025 12.976 20.448 12.976 19.736 L 12.976 14.579 C 12.976 13.868 12.399 13.291 11.687 13.291 C 10.976 13.291 10.399 13.868 10.399 14.579 L 10.399 19.736 C 10.399 20.448 10.976 21.025 11.687 21.025 Z M 11.687 21.025" bx:origin="4.501747 1.126065"/>
  <path d="M 16.844 21.025 C 17.556 21.025 18.133 20.448 18.133 19.736 L 18.133 14.579 C 18.133 13.868 17.556 13.291 16.844 13.291 C 16.131 13.291 15.554 13.868 15.554 14.579 L 15.554 19.736 C 15.554 20.448 16.131 21.025 16.844 21.025 Z M 16.844 21.025" bx:origin="2.499419 1.126065"/>
  <path d="M 22 21.025 C 22.712 21.025 23.289 20.448 23.289 19.736 L 23.289 14.579 C 23.289 13.868 22.712 13.291 22 13.291 C 21.288 13.291 20.711 13.868 20.711 14.579 L 20.711 19.736 C 20.711 20.448 21.288 21.025 22 21.025 Z M 22 21.025" bx:origin="0.5 1.126065"/>
  <path d="M 27.156 21.025 C 27.869 21.025 28.446 20.448 28.446 19.736 L 28.446 14.579 C 28.446 13.868 27.869 13.291 27.156 13.291 C 26.444 13.291 25.867 13.868 25.867 14.579 L 25.867 19.736 C 25.867 20.448 26.444 21.025 27.156 21.025 Z M 27.156 21.025" bx:origin="-1.499419 1.126065"/>
  <path d="M 32.313 21.025 C 33.024 21.025 33.601 20.448 33.601 19.736 L 33.601 14.579 C 33.601 13.868 33.024 13.291 32.313 13.291 C 31.601 13.291 31.024 13.868 31.024 14.579 L 31.024 19.736 C 31.024 20.448 31.601 21.025 32.313 21.025 Z M 32.313 21.025" bx:origin="-3.501744 1.126065"/>
</svg>