<?xml version="1.0" encoding="utf-8"?>
<svg height="44px" viewBox="0 0 44 44" width="44px" xmlns="http://www.w3.org/2000/svg" xmlns:bx="https://boxy-svg.com">
  <path d="M 38.485 5 L 5.515 5 C 3.577 5 2 6.577 2 8.515 L 2 36.641 C 2 38.579 3.577 40.156 5.515 40.156 L 38.485 40.156 C 40.423 40.156 42 38.579 42 36.641 L 42 8.515 C 42 6.577 40.423 5 38.485 5 Z M 39.656 36.641 C 39.656 37.287 39.131 37.813 38.485 37.813 L 5.515 37.813 C 4.869 37.813 4.344 37.287 4.344 36.641 L 4.344 8.515 C 4.344 7.869 4.869 7.344 5.515 7.344 L 38.485 7.344 C 39.131 7.344 39.656 7.869 39.656 8.515 Z M 39.656 36.641" bx:origin="0.494125 0.498692"/>
  <path d="M 36.062 9.687 L 7.938 9.687 C 7.291 9.687 6.765 10.213 6.765 10.86 L 6.765 24.922 C 6.765 25.569 7.291 26.094 7.938 26.094 L 9.109 26.094 L 9.109 29.61 C 9.109 30.257 9.634 30.781 10.281 30.781 L 13.796 30.781 L 13.796 34.297 C 13.796 34.944 14.322 35.468 14.969 35.468 L 29.031 35.468 C 29.678 35.468 30.204 34.944 30.204 34.297 L 30.204 30.781 L 33.719 30.781 C 34.366 30.781 34.891 30.257 34.891 29.61 L 34.891 26.094 L 36.062 26.094 C 36.71 26.094 37.235 25.569 37.235 24.922 L 37.235 10.86 C 37.235 10.213 36.71 9.687 36.062 9.687 Z M 34.891 23.75 L 33.719 23.75 C 33.071 23.75 32.546 24.275 32.546 24.922 L 32.546 28.437 L 29.031 28.437 C 28.384 28.437 27.86 28.962 27.86 29.61 L 27.86 33.125 L 16.14 33.125 L 16.14 29.61 C 16.14 28.962 15.616 28.437 14.969 28.437 L 11.454 28.437 L 11.454 24.922 C 11.454 24.275 10.929 23.75 10.281 23.75 L 9.109 23.75 L 9.109 12.031 L 34.891 12.031 Z M 34.891 23.75" bx:origin="0.492287 0.498235"/>
  <path d="M 10.281 33.125 L 7.938 33.125 C 7.291 33.125 6.765 33.65 6.765 34.297 C 6.765 34.944 7.291 35.468 7.938 35.468 L 10.281 35.468 C 10.929 35.468 11.454 34.944 11.454 34.297 C 11.454 33.65 10.929 33.125 10.281 33.125 Z M 10.281 33.125" bx:origin="3.198976 -4.521122"/>
  <path d="M 36.062 33.125 L 33.719 33.125 C 33.071 33.125 32.546 33.65 32.546 34.297 C 32.546 34.944 33.071 35.468 33.719 35.468 L 36.062 35.468 C 36.71 35.468 37.235 34.944 37.235 34.297 C 37.235 33.65 36.71 33.125 36.062 33.125 Z M 36.062 33.125" bx:origin="-2.299209 -4.521122"/>
  <path d="M 12.625 21.406 C 13.272 21.406 13.796 20.882 13.796 20.235 L 13.796 15.546 C 13.796 14.9 13.272 14.375 12.625 14.375 C 11.978 14.375 11.454 14.9 11.454 15.546 L 11.454 20.235 C 11.454 20.882 11.978 21.406 12.625 21.406 Z M 12.625 21.406" bx:origin="4.402647 1.160148"/>
  <path d="M 17.313 21.406 C 17.96 21.406 18.485 20.882 18.485 20.235 L 18.485 15.546 C 18.485 14.9 17.96 14.375 17.313 14.375 C 16.665 14.375 16.14 14.9 16.14 15.546 L 16.14 20.235 C 16.14 20.882 16.665 21.406 17.313 21.406 Z M 17.313 21.406" bx:origin="2.398721 1.160148"/>
  <path d="M 22 21.406 C 22.647 21.406 23.172 20.882 23.172 20.235 L 23.172 15.546 C 23.172 14.9 22.647 14.375 22 14.375 C 21.353 14.375 20.828 14.9 20.828 15.546 L 20.828 20.235 C 20.828 20.882 21.353 21.406 22 21.406 Z M 22 21.406" bx:origin="0.399744 1.160148"/>
  <path d="M 26.687 21.406 C 27.335 21.406 27.86 20.882 27.86 20.235 L 27.86 15.546 C 27.86 14.9 27.335 14.375 26.687 14.375 C 26.04 14.375 25.515 14.9 25.515 15.546 L 25.515 20.235 C 25.515 20.882 26.04 21.406 26.687 21.406 Z M 26.687 21.406" bx:origin="-1.599148 1.160148"/>
  <path d="M 31.375 21.406 C 32.022 21.406 32.546 20.882 32.546 20.235 L 32.546 15.546 C 32.546 14.9 32.022 14.375 31.375 14.375 C 30.728 14.375 30.204 14.9 30.204 15.546 L 30.204 20.235 C 30.204 20.882 30.728 21.406 31.375 21.406 Z M 31.375 21.406" bx:origin="-3.603332 1.160148"/>
</svg>