<?xml version="1.0" encoding="utf-8"?>
<svg id="Capa_1" enable-background="new 0 0 512 512" height="512" viewBox="0 0 60 60" width="512" xmlns="http://www.w3.org/2000/svg">
  <g transform="matrix(0.078125, 0, 0, 0.078125, 9.999999, 10)">
    <path d="m35.862 28.102h-3.237c-4.143 0-7.5 3.357-7.5 7.5s3.357 7.5 7.5 7.5h3.237c4.143 0 7.5-3.357 7.5-7.5s-3.357-7.5-7.5-7.5z"/>
    <path d="m266.005 43.102h3.237c4.143 0 7.5-3.357 7.5-7.5s-3.357-7.5-7.5-7.5h-3.237c-4.143 0-7.5 3.357-7.5 7.5s3.357 7.5 7.5 7.5z"/>
    <path d="m35.862 258.766h-3.237c-4.143 0-7.5 3.357-7.5 7.5s3.357 7.5 7.5 7.5h3.237c4.143 0 7.5-3.357 7.5-7.5s-3.357-7.5-7.5-7.5z"/>
    <path d="m266.005 273.766h3.237c4.143 0 7.5-3.357 7.5-7.5s-3.357-7.5-7.5-7.5h-3.237c-4.143 0-7.5 3.357-7.5 7.5s3.357 7.5 7.5 7.5z"/>
    <path d="m436.102 320.69h-36.647c-4.143 0-7.5 3.357-7.5 7.5s3.357 7.5 7.5 7.5h36.647c4.143 0 7.5-3.357 7.5-7.5s-3.358-7.5-7.5-7.5z"/>
    <path d="m436.102 344.198h-36.647c-4.143 0-7.5 3.357-7.5 7.5s3.357 7.5 7.5 7.5h36.647c4.143 0 7.5-3.357 7.5-7.5s-3.358-7.5-7.5-7.5z"/>
    <path d="m436.102 367.706h-36.647c-4.143 0-7.5 3.357-7.5 7.5s3.357 7.5 7.5 7.5h36.647c4.143 0 7.5-3.357 7.5-7.5s-3.358-7.5-7.5-7.5z"/>
    <path d="m228.249 172.003c-7.715 0-13.992 6.277-13.992 13.992v20.842h-14.379c-7.716 0-13.992 6.277-13.992 13.992v16.853h-19.959c-4.143 0-7.5 3.357-7.5 7.5s3.357 7.5 7.5 7.5h20.967c7.715 0 13.992-6.277 13.992-13.992v-16.853h14.379c7.715 0 13.992-6.277 13.992-13.992v-20.842h9.047c7.715 0 13.992-6.277 13.992-13.992v-109.833c0-7.715-6.277-13.992-13.992-13.992h-174.741c-7.715 0-13.992 6.277-13.992 13.992v109.833c0 7.715 6.277 13.992 13.992 13.992h9.047v20.842c0 7.715 6.277 13.992 13.992 13.992h14.379v16.853c0 7.715 6.277 13.992 13.992 13.992h20.967c4.143 0 7.5-3.357 7.5-7.5s-3.357-7.5-7.5-7.5h-19.959v-16.853c0-7.715-6.276-13.992-13.992-13.992h-14.379v-20.842c0-7.715-6.277-13.992-13.992-13.992h-9.047v-107.817h45.704v19.844c0 4.143 3.357 7.5 7.5 7.5s7.5-3.357 7.5-7.5v-19.844h18.158v19.844c0 4.143 3.357 7.5 7.5 7.5s7.5-3.357 7.5-7.5v-19.844h18.159v19.844c0 4.143 3.357 7.5 7.5 7.5s7.5-3.357 7.5-7.5v-19.844h45.703v107.817z"/>
    <path d="m504.5 298.154c4.143 0 7.5-3.357 7.5-7.5v-30.922c0-11.267-9.166-20.433-20.433-20.433h-3.344v-111.741c0-12.945-10.532-23.478-23.478-23.478h-93.935c-12.945 0-23.478 10.532-23.478 23.478v111.742h-3.344c-11.267 0-20.433 9.166-20.433 20.433v72.359c0 3.488.901 6.941 2.607 9.987l33.867 60.442c3.608 6.443 10.439 10.446 17.825 10.446h2.914v24.052c0 4.143 3.357 7.5 7.5 7.5h6.524v59.98c0 4.143 3.357 7.5 7.5 7.5s7.5-3.357 7.5-7.5v-59.98h16.79v59.98c0 4.143 3.357 7.5 7.5 7.5s7.5-3.357 7.5-7.5v-59.98h7.46c4.143 0 7.5-3.357 7.5-7.5v-24.052h1.156c7.386 0 14.217-4.003 17.825-10.445l33.867-60.444c1.706-3.045 2.607-6.498 2.607-9.986v-11.451c0-4.143-3.357-7.5-7.5-7.5s-7.5 3.357-7.5 7.5v11.451c0 .928-.24 1.846-.693 2.655l-33.867 60.444c-.96 1.713-2.775 2.776-4.739 2.776h-79.845c-1.964 0-3.779-1.063-4.739-2.777l-33.867-60.442c-.453-.811-.693-1.729-.693-2.656v-72.359c0-2.995 2.438-5.433 5.433-5.433h28.979c8.277 0 15.682-4.938 18.862-12.577l6.877-16.513c.846-2.03 2.813-3.343 5.015-3.343h28.112c2.201 0 4.17 1.312 5.016 3.345l6.876 16.51c3.181 7.641 10.585 12.578 18.862 12.578h28.979c2.995 0 5.433 2.438 5.433 5.433v30.922c.002 4.142 3.359 7.499 7.502 7.499zm-62.956 114.814v16.552h-45.774v-16.552zm-44.074-293.888v10.73c0 4.143 3.357 7.5 7.5 7.5s7.5-3.357 7.5-7.5v-10.73h10.616v10.73c0 4.143 3.357 7.5 7.5 7.5s7.5-3.357 7.5-7.5v-10.73h10.07v28.465c0 .445-.362.808-.807.808h-59.144c-.444 0-.807-.362-.807-.808v-28.465zm60.103 116.875-6.876-16.511c-3.182-7.641-10.586-12.577-18.863-12.577h-28.112c-8.278 0-15.682 4.938-18.862 12.577l-6.877 16.512c-.846 2.031-2.814 3.344-5.015 3.344h-10.636v-111.742c0-4.675 3.803-8.478 8.478-8.478h1.59v28.465c0 8.717 7.091 15.808 15.807 15.808h59.144c8.716 0 15.807-7.091 15.807-15.808v-28.465h1.59c4.675 0 8.478 3.803 8.478 8.478v111.742h-10.636c-2.202 0-4.171-1.313-5.017-3.345z"/>
    <path d="m285.682 0h-198.623c-4.143 0-7.5 3.357-7.5 7.5s3.357 7.5 7.5 7.5h198.623c.653 0 1.186.532 1.186 1.186v269.496c0 .653-.532 1.186-1.186 1.186h-269.496c-.653 0-1.186-.532-1.186-1.186v-269.496c0-.654.532-1.186 1.186-1.186h40.886c4.143 0 7.5-3.357 7.5-7.5s-3.358-7.5-7.501-7.5h-40.885c-8.925 0-16.186 7.261-16.186 16.186v269.496c0 8.925 7.261 16.186 16.186 16.186h269.496c8.925 0 16.186-7.261 16.186-16.186v-269.496c-.001-8.925-7.262-16.186-16.186-16.186z"/>
  </g>
</svg>