<svg height="512pt" viewBox="0 -31 512 512" width="512pt" xmlns="http://www.w3.org/2000/svg"><path d="m467 0h-422c-24.8125 0-45 20.1875-45 45v360c0 24.8125 20.1875 45 45 45h422c24.8125 0 45-20.1875 45-45v-360c0-24.8125-20.1875-45-45-45zm15 405c0 8.269531-6.730469 15-15 15h-422c-8.269531 0-15-6.730469-15-15v-360c0-8.269531 6.730469-15 15-15h422c8.269531 0 15 6.730469 15 15zm0 0"/><path d="m436 60h-360c-8.285156 0-15 6.714844-15 15v180c0 8.285156 6.714844 15 15 15h15v45c0 8.285156 6.714844 15 15 15h45v45c0 8.285156 6.714844 15 15 15h180c8.285156 0 15-6.714844 15-15v-45h45c8.285156 0 15-6.714844 15-15v-45h15c8.285156 0 15-6.714844 15-15v-180c0-8.285156-6.714844-15-15-15zm-15 180h-15c-8.285156 0-15 6.714844-15 15v45h-45c-8.285156 0-15 6.714844-15 15v45h-150v-45c0-8.285156-6.714844-15-15-15h-45v-45c0-8.285156-6.714844-15-15-15h-15v-150h330zm0 0"/><path d="m106 360h-30c-8.285156 0-15 6.714844-15 15s6.714844 15 15 15h30c8.285156 0 15-6.714844 15-15s-6.714844-15-15-15zm0 0"/><path d="m436 360h-30c-8.285156 0-15 6.714844-15 15s6.714844 15 15 15h30c8.285156 0 15-6.714844 15-15s-6.714844-15-15-15zm0 0"/><path d="m136 210c8.285156 0 15-6.714844 15-15v-60c0-8.285156-6.714844-15-15-15s-15 6.714844-15 15v60c0 8.285156 6.714844 15 15 15zm0 0"/><path d="m196 210c8.285156 0 15-6.714844 15-15v-60c0-8.285156-6.714844-15-15-15s-15 6.714844-15 15v60c0 8.285156 6.714844 15 15 15zm0 0"/><path d="m256 210c8.285156 0 15-6.714844 15-15v-60c0-8.285156-6.714844-15-15-15s-15 6.714844-15 15v60c0 8.285156 6.714844 15 15 15zm0 0"/><path d="m316 210c8.285156 0 15-6.714844 15-15v-60c0-8.285156-6.714844-15-15-15s-15 6.714844-15 15v60c0 8.285156 6.714844 15 15 15zm0 0"/><path d="m376 210c8.285156 0 15-6.714844 15-15v-60c0-8.285156-6.714844-15-15-15s-15 6.714844-15 15v60c0 8.285156 6.714844 15 15 15zm0 0"/></svg>