<?xml version="1.0" encoding="utf-8"?>
<svg id="Outline" viewBox="0 0 60 60" xmlns="http://www.w3.org/2000/svg">
  <title>90 exclamation</title>
  <path d="M 29.992 0 C 6.916 0 -7.508 24.982 4.031 44.966 C 15.569 64.95 44.416 64.95 55.954 44.966 C 58.585 40.409 59.97 35.24 59.97 29.977 C 59.952 13.428 46.541 0.018 29.992 0 Z M 29.992 54.959 C 10.762 54.959 -1.257 34.141 8.358 17.487 C 17.973 0.833 42.012 0.833 51.627 17.487 C 53.82 21.284 54.974 25.592 54.974 29.977 C 54.959 43.768 43.783 54.944 29.992 54.959 Z"/>
  <path d="M 29.992 12.49 C 28.613 12.49 27.494 13.61 27.494 14.989 L 27.494 34.973 C 27.494 36.896 29.576 38.098 31.241 37.137 C 32.014 36.691 32.491 35.866 32.491 34.973 L 32.491 14.989 C 32.491 13.61 31.371 12.49 29.992 12.49 Z"/>
  <rect x="27.494" y="42.467" width="4.996" height="4.996" rx="1"/>
</svg>