<?xml version="1.0" encoding="utf-8"?>
<svg id="Outline" viewBox="0 0 60 60" xmlns="http://www.w3.org/2000/svg" xmlns:bx="https://boxy-svg.com">
  <title>79 play</title>
  <path d="M 50.409 19.919 L 26.556 2.417 C 18.792 -3.269 7.784 1.583 6.742 11.15 C 6.694 11.598 6.669 12.048 6.669 12.498 L 6.669 47.503 C 6.671 57.126 17.09 63.139 25.423 58.326 C 25.817 58.099 26.198 57.85 26.564 57.582 L 50.417 40.079 C 57.228 35.084 57.228 24.912 50.417 19.917 Z M 47.449 36.046 L 23.596 53.549 C 18.934 56.955 12.332 54.038 11.713 48.297 C 11.684 48.033 11.67 47.768 11.67 47.503 L 11.67 12.498 C 11.641 9.668 13.236 7.072 15.773 5.818 C 16.83 5.28 17.999 4.999 19.186 4.997 C 20.775 5.004 22.321 5.52 23.596 6.47 L 47.449 23.972 C 51.53 26.97 51.53 33.067 47.449 36.064 Z" bx:origin="0.477544 0.5"/>
</svg>