<?xml version="1.0" encoding="utf-8"?>
<svg id="Outline" viewBox="0 0 40 40" xmlns="http://www.w3.org/2000/svg">
  <title>28 edit</title>
  <path d="M 31.093 1.55 L 10.773 21.87 C 9.206 23.429 8.327 25.551 8.333 27.762 L 8.333 30 C 8.333 30.92 9.08 31.667 10 31.667 L 12.238 31.667 C 14.449 31.673 16.571 30.794 18.13 29.227 L 38.45 8.907 C 40.478 6.874 40.478 3.583 38.45 1.55 C 36.392 -0.417 33.151 -0.417 31.093 1.55 Z M 36.093 6.55 L 15.773 26.87 C 14.834 27.804 13.563 28.33 12.238 28.333 L 11.667 28.333 L 11.667 27.762 C 11.67 26.437 12.196 25.166 13.13 24.227 L 33.45 3.907 C 34.189 3.2 35.354 3.2 36.093 3.907 C 36.822 4.637 36.822 5.819 36.093 6.55 Z"/>
  <path d="M 38.333 14.965 C 37.413 14.965 36.667 15.711 36.667 16.632 L 36.667 25 L 30 25 C 27.239 25 25 27.239 25 30 L 25 36.667 L 8.333 36.667 C 5.572 36.667 3.333 34.428 3.333 31.667 L 3.333 8.333 C 3.333 5.572 5.572 3.333 8.333 3.333 L 23.403 3.333 C 24.686 3.333 25.488 1.944 24.847 0.833 C 24.549 0.318 23.999 0 23.403 0 L 8.333 0 C 3.733 0.006 0.006 3.733 0 8.333 L 0 31.667 C 0.006 36.267 3.733 39.994 8.333 40 L 27.238 40 C 29.45 40.006 31.572 39.128 33.132 37.56 L 37.558 33.13 C 39.126 31.571 40.005 29.449 40 27.238 L 40 16.632 C 40 15.711 39.254 14.965 38.333 14.965 Z M 30.775 35.203 C 30.105 35.872 29.258 36.334 28.333 36.537 L 28.333 30 C 28.333 29.08 29.08 28.333 30 28.333 L 36.542 28.333 C 36.335 29.256 35.873 30.102 35.208 30.773 Z"/>
</svg>