<?xml version="1.0" encoding="utf-8"?>
<svg id="Outline" viewBox="0 0 40 40" xmlns="http://www.w3.org/2000/svg">
  <title>178 plus</title>
  <path d="M 38.333 18.333 L 21.667 18.333 L 21.667 1.667 C 21.667 0.747 20.92 0 20 0 L 20 0 C 19.08 0 18.333 0.747 18.333 1.667 L 18.333 18.333 L 1.667 18.333 C 0.747 18.333 0 19.08 0 20 L 0 20 C 0 20.92 0.747 21.667 1.667 21.667 L 18.333 21.667 L 18.333 38.333 C 18.333 39.253 19.08 40 20 40 L 20 40 C 20.92 40 21.667 39.253 21.667 38.333 L 21.667 21.667 L 38.333 21.667 C 39.253 21.667 40 20.92 40 20 L 40 20 C 40 19.08 39.253 18.333 38.333 18.333 Z" style="fill: rgb(195, 204, 223);"/>
</svg>