<?xml version="1.0" encoding="utf-8"?>
<svg viewBox="0 0 37 37" xmlns="http://www.w3.org/2000/svg" xmlns:bx="https://boxy-svg.com">
  <path d="M 32.502 6 L 27.852 6 C 27.134 2.51 24.065 0.004 20.502 0 L 17.502 0 C 13.939 0.004 10.87 2.51 10.152 6 L 5.502 6 C 4.347 6 3.626 7.25 4.203 8.25 C 4.471 8.714 4.966 9 5.502 9 L 7.002 9 L 7.002 28.5 C 7.007 32.64 10.362 35.995 14.502 36 L 23.502 36 C 27.642 35.995 30.997 32.64 31.002 28.5 L 31.002 9 L 32.502 9 C 33.657 9 34.378 7.75 33.801 6.75 C 33.533 6.286 33.038 6 32.502 6 Z M 17.502 3 L 20.502 3 C 22.408 3.002 24.107 4.203 24.746 6 L 13.258 6 C 13.897 4.203 15.596 3.002 17.502 3 Z M 28.002 28.5 C 28.002 30.985 25.987 33 23.502 33 L 14.502 33 C 12.017 33 10.002 30.985 10.002 28.5 L 10.002 9 L 28.002 9 Z" bx:origin="0.5 0.5"/>
  <path d="M 16.002 27 C 16.83 27 17.502 26.328 17.502 25.5 L 17.502 16.5 C 17.502 15.345 16.252 14.624 15.252 15.201 C 14.788 15.469 14.502 15.964 14.502 16.5 L 14.502 25.5 C 14.502 26.328 15.174 27 16.002 27 Z" bx:origin="1.499999 0.250131"/>
  <path d="M 22.002 27 C 22.83 27 23.502 26.328 23.502 25.5 L 23.502 16.5 C 23.502 15.345 22.252 14.624 21.252 15.201 C 20.788 15.469 20.502 15.964 20.502 16.5 L 20.502 25.5 C 20.502 26.328 21.174 27 22.002 27 Z" bx:origin="-0.500001 0.250131"/>
</svg>