<?xml version="1.0" encoding="utf-8"?>
<svg id="Outline" viewBox="0 0 60 60" xmlns="http://www.w3.org/2000/svg" xmlns:bx="https://boxy-svg.com">
  <title>147 shuffle</title>
  <path d="M 56.014 40.263 L 48.472 32.721 C 47.264 31.435 45.118 31.938 44.608 33.628 C 44.356 34.462 44.599 35.365 45.234 35.961 L 50.482 41.218 C 44.719 41.232 39.194 38.918 35.16 34.802 C 34.225 33.941 32.764 34.024 31.933 34.985 L 31.904 35.031 C 31.103 35.962 31.178 37.359 32.076 38.198 C 36.935 43.114 43.576 45.856 50.489 45.802 L 45.234 51.057 C 43.897 52.207 44.306 54.374 45.971 54.957 C 46.865 55.27 47.858 55.001 48.472 54.281 L 56.014 46.739 C 57.801 44.95 57.801 42.052 56.014 40.263 Z" bx:origin="-0.051895 -0.086484"/>
  <path d="M 50.482 18.302 L 45.234 23.55 C 45.189 23.61 45.148 23.672 45.11 23.737 C 44.001 25.09 44.772 27.137 46.499 27.422 C 47.22 27.541 47.954 27.306 48.472 26.79 L 52.382 22.885 L 56.017 19.253 C 57.271 17.988 57.679 16.111 57.064 14.44 C 56.841 13.814 56.483 13.244 56.014 12.772 L 48.472 5.239 C 47.278 3.941 45.126 4.423 44.599 6.107 C 44.334 6.953 44.581 7.876 45.234 8.477 L 50.489 13.729 C 39.184 13.757 32.987 19.858 27.368 26.274 C 22.207 20.449 16.091 14.635 5.748 13.824 L 4.646 13.718 C 3.38 13.718 2.354 14.744 2.354 16.01 C 2.378 17.265 3.39 18.277 4.646 18.302 C 4.811 18.302 5.303 18.377 5.303 18.377 C 14.232 19.054 19.356 24.081 24.341 29.76 C 19.386 35.412 14.296 40.531 5.441 41.127 L 4.524 41.175 C 2.773 41.284 1.798 43.248 2.768 44.71 C 3.218 45.388 3.996 45.774 4.808 45.724 C 5.166 45.708 5.748 45.694 6.034 45.672 C 17.539 44.785 23.779 37.421 29.344 30.984 C 34.962 24.489 40.271 18.343 50.482 18.302 Z" bx:origin="0.502725 0.618523"/>
</svg>