<?xml version="1.0" encoding="utf-8"?>
<svg version="1.1" id="Capa_1" x="0px" y="0px" viewBox="0 0 44 44" style="enable-background:new 0 0 511.997 511.997;" xmlns="http://www.w3.org/2000/svg" xmlns:bx="https://boxy-svg.com">
  <g transform="matrix(0.042969, 0.042969, -0.042969, 0.042969, 21.886286, 8.700265)" bx:origin="0.306799 0.301636">
    <g>
      <g>
        <path d="M211.26,389.24l-60.331,60.331c-25.012,25.012-65.517,25.012-90.508,0.005c-24.996-24.996-24.996-65.505-0.005-90.496 l120.683-120.683c24.991-24.992,65.5-24.992,90.491,0c8.331,8.331,21.839,8.331,30.17,0c8.331-8.331,8.331-21.839,0-30.17 c-41.654-41.654-109.177-41.654-150.831,0L30.247,328.909c-41.654,41.654-41.654,109.177,0,150.831 c41.649,41.676,109.177,41.676,150.853,0l60.331-60.331c8.331-8.331,8.331-21.839,0-30.17S219.591,380.909,211.26,389.24z"/>
        <path d="M479.751,30.24c-41.654-41.654-109.199-41.654-150.853,0l-72.384,72.384c-8.331,8.331-8.331,21.839,0,30.17 c8.331,8.331,21.839,8.331,30.17,0l72.384-72.384c24.991-24.992,65.521-24.992,90.513,0c24.991,24.991,24.991,65.5,0,90.491 L316.845,283.638c-24.992,24.992-65.5,24.992-90.491,0c-8.331-8.331-21.839-8.331-30.17,0s-8.331,21.839,0,30.17 c41.654,41.654,109.177,41.654,150.831,0l132.736-132.736C521.405,139.418,521.405,71.894,479.751,30.24z"/>
      </g>
    </g>
  </g>
  <g/>
  <g/>
  <g/>
  <g/>
  <g/>
  <g/>
  <g/>
  <g/>
  <g/>
  <g/>
  <g/>
  <g/>
  <g/>
  <g/>
  <g/>
  <path d="M 10.645 17.201 L 4.906 17.201 L 7.34 13.46 C 7.66 12.968 7.917 12.55 8.11 12.208 C 8.307 11.872 8.45 11.572 8.538 11.314 C 8.625 11.059 8.67 10.811 8.67 10.566 C 8.67 10.183 8.563 9.885 8.351 9.673 C 8.138 9.454 7.84 9.346 7.457 9.346 C 6.995 9.346 6.58 9.46 6.212 9.688 C 5.845 9.921 5.514 10.183 5.224 10.473 L 5.006 8.762 C 5.406 8.445 5.829 8.2 6.275 8.024 C 6.72 7.847 7.228 7.759 7.799 7.759 C 8.358 7.759 8.826 7.873 9.198 8.101 C 9.573 8.335 9.85 8.64 10.031 9.019 C 10.218 9.398 10.311 9.81 10.311 10.256 C 10.311 10.608 10.262 10.958 10.163 11.305 C 10.07 11.658 9.912 12.048 9.689 12.473 C 9.465 12.898 9.168 13.392 8.795 13.958 L 7.705 15.614 L 10.645 15.614 L 10.645 17.201 Z M 15.151 17.388 C 14.508 17.388 13.945 17.246 13.464 16.961 C 12.987 16.67 12.616 16.266 12.352 15.747 C 12.087 15.234 11.955 14.629 11.955 13.935 C 11.955 13.189 12.085 12.493 12.344 11.85 C 12.603 11.202 12.945 10.613 13.371 10.085 C 13.79 9.556 14.247 9.095 14.739 8.701 C 15.237 8.306 15.719 7.993 16.186 7.759 L 17.361 8.684 C 17.127 8.799 16.848 8.963 16.52 9.175 C 16.189 9.387 15.849 9.639 15.501 9.929 C 15.154 10.224 14.83 10.553 14.529 10.917 C 14.224 11.285 13.978 11.685 13.79 12.115 C 13.603 12.545 13.51 13.001 13.51 13.484 L 13.036 12.9 C 13.269 12.522 13.581 12.216 13.969 11.982 C 14.358 11.749 14.864 11.632 15.485 11.632 C 15.999 11.632 16.461 11.752 16.87 11.99 C 17.28 12.228 17.604 12.558 17.843 12.978 C 18.077 13.398 18.193 13.881 18.193 14.425 C 18.193 15.01 18.069 15.526 17.819 15.973 C 17.576 16.418 17.226 16.766 16.769 17.016 C 16.313 17.264 15.774 17.388 15.151 17.388 Z M 15.176 15.988 C 15.601 15.988 15.953 15.84 16.233 15.545 C 16.518 15.255 16.661 14.902 16.661 14.487 C 16.661 14.073 16.518 13.727 16.233 13.453 C 15.953 13.172 15.601 13.033 15.176 13.033 C 14.749 13.033 14.397 13.172 14.117 13.453 C 13.837 13.727 13.697 14.073 13.697 14.487 C 13.697 14.902 13.837 15.255 14.117 15.545 C 14.397 15.84 14.749 15.988 15.176 15.988 Z M 21.805 17.388 C 21.249 17.388 20.744 17.324 20.288 17.194 C 19.832 17.065 19.468 16.93 19.199 16.79 L 19.604 15.366 C 19.899 15.512 20.236 15.641 20.615 15.755 C 20.993 15.874 21.389 15.934 21.805 15.934 C 22.287 15.934 22.673 15.823 22.964 15.6 C 23.254 15.376 23.4 15.034 23.4 14.573 C 23.4 14.106 23.259 13.757 22.979 13.522 C 22.695 13.284 22.266 13.165 21.696 13.165 L 20.755 13.165 L 20.755 11.578 L 21.68 11.578 C 22.157 11.578 22.524 11.469 22.778 11.251 C 23.026 11.029 23.15 10.725 23.15 10.341 C 23.15 9.999 23.034 9.727 22.8 9.525 C 22.572 9.318 22.24 9.214 21.805 9.214 C 21.425 9.214 21.071 9.271 20.739 9.385 C 20.407 9.498 20.078 9.649 19.752 9.836 L 19.502 8.342 C 19.808 8.181 20.172 8.045 20.591 7.93 C 21.012 7.816 21.472 7.759 21.976 7.759 C 22.577 7.759 23.086 7.863 23.501 8.07 C 23.915 8.272 24.229 8.552 24.442 8.91 C 24.66 9.269 24.769 9.673 24.769 10.124 C 24.769 10.721 24.607 11.226 24.286 11.64 C 23.97 12.055 23.521 12.335 22.941 12.481 L 22.924 12.178 C 23.567 12.28 24.092 12.536 24.496 12.947 C 24.895 13.357 25.095 13.898 25.095 14.573 C 25.095 15.174 24.957 15.685 24.682 16.105 C 24.408 16.525 24.024 16.845 23.532 17.062 C 23.034 17.28 22.458 17.388 21.805 17.388 Z M 29.065 17.373 C 28.555 17.373 28.089 17.309 27.665 17.179 C 27.244 17.044 26.863 16.861 26.521 16.633 L 26.918 15.101 C 27.244 15.304 27.576 15.468 27.913 15.592 C 28.25 15.722 28.623 15.786 29.034 15.786 C 29.536 15.786 29.935 15.654 30.231 15.39 C 30.527 15.126 30.674 14.767 30.674 14.316 C 30.674 13.834 30.508 13.456 30.177 13.18 C 29.839 12.906 29.354 12.768 28.723 12.768 C 28.426 12.768 28.136 12.786 27.85 12.823 C 27.56 12.859 27.273 12.903 26.987 12.955 L 27.579 7.946 L 31.942 7.946 L 31.842 9.586 L 28.855 9.586 L 28.535 12.153 L 27.897 11.57 C 28.11 11.508 28.334 11.461 28.566 11.431 C 28.794 11.399 29.043 11.384 29.313 11.384 C 29.904 11.384 30.426 11.5 30.877 11.734 C 31.328 11.961 31.68 12.296 31.935 12.737 C 32.188 13.172 32.316 13.699 32.316 14.316 C 32.316 14.954 32.175 15.501 31.896 15.957 C 31.616 16.413 31.231 16.763 30.745 17.008 C 30.251 17.25 29.691 17.373 29.065 17.373 Z M 37.852 17.201 L 33.994 17.201 L 33.994 7.946 L 37.487 7.946 C 38.378 7.946 39.042 8.137 39.478 8.521 C 39.913 8.9 40.131 9.452 40.131 10.178 C 40.131 10.723 40.01 11.175 39.766 11.539 C 39.516 11.903 39.149 12.167 38.661 12.332 L 38.661 12.021 C 39.403 12.178 39.955 12.467 40.318 12.892 C 40.686 13.313 40.87 13.873 40.87 14.573 C 40.87 15.402 40.601 16.049 40.061 16.509 C 39.527 16.971 38.791 17.201 37.852 17.201 Z M 35.689 13.087 L 35.689 15.693 L 37.604 15.693 C 38.065 15.693 38.433 15.6 38.708 15.413 C 38.987 15.22 39.128 14.878 39.128 14.386 C 39.128 13.883 38.98 13.541 38.684 13.36 C 38.394 13.178 38.034 13.087 37.604 13.087 L 35.689 13.087 Z M 35.689 9.454 L 35.689 11.578 L 37.229 11.578 C 37.64 11.578 37.948 11.495 38.155 11.329 C 38.364 11.164 38.466 10.894 38.466 10.52 C 38.466 10.141 38.364 9.869 38.155 9.704 C 37.948 9.538 37.64 9.454 37.229 9.454 L 35.689 9.454 Z" style="white-space: pre;" bx:origin="0.475309 1.47897"/>
</svg>