<?xml version="1.0" encoding="utf-8"?>
<svg version="1.1" id="Capa_1" x="0px" y="0px" viewBox="0 0 44 44" style="enable-background:new 0 0 511.997 511.997;" xmlns="http://www.w3.org/2000/svg" xmlns:bx="https://boxy-svg.com">
  <g transform="matrix(0.043946, 0.043946, -0.043946, 0.043946, 22.239355, 8.245801)" bx:origin="0.302274 0.312919">
    <g>
      <g>
        <path d="M211.26,389.24l-60.331,60.331c-25.012,25.012-65.517,25.012-90.508,0.005c-24.996-24.996-24.996-65.505-0.005-90.496 l120.683-120.683c24.991-24.992,65.5-24.992,90.491,0c8.331,8.331,21.839,8.331,30.17,0c8.331-8.331,8.331-21.839,0-30.17 c-41.654-41.654-109.177-41.654-150.831,0L30.247,328.909c-41.654,41.654-41.654,109.177,0,150.831 c41.649,41.676,109.177,41.676,150.853,0l60.331-60.331c8.331-8.331,8.331-21.839,0-30.17S219.591,380.909,211.26,389.24z" style="fill: rgb(195, 204, 223);"/>
        <path d="M479.751,30.24c-41.654-41.654-109.199-41.654-150.853,0l-72.384,72.384c-8.331,8.331-8.331,21.839,0,30.17 c8.331,8.331,21.839,8.331,30.17,0l72.384-72.384c24.991-24.992,65.521-24.992,90.513,0c24.991,24.991,24.991,65.5,0,90.491 L316.845,283.638c-24.992,24.992-65.5,24.992-90.491,0c-8.331-8.331-21.839-8.331-30.17,0s-8.331,21.839,0,30.17 c41.654,41.654,109.177,41.654,150.831,0l132.736-132.736C521.405,139.418,521.405,71.894,479.751,30.24z" style="fill: rgb(195, 204, 223);"/>
      </g>
    </g>
  </g>
  <g/>
  <g/>
  <g/>
  <g/>
  <g/>
  <g/>
  <g/>
  <g/>
  <g/>
  <g/>
  <g/>
  <g/>
  <g/>
  <g/>
  <g/>
  <path d="M 10.742 16.938 L 4.87 16.938 L 7.361 13.113 C 7.689 12.609 7.952 12.183 8.148 11.83 C 8.35 11.488 8.496 11.182 8.586 10.918 C 8.676 10.657 8.721 10.402 8.721 10.153 C 8.721 9.76 8.612 9.457 8.395 9.24 C 8.179 9.016 7.874 8.905 7.48 8.905 C 7.009 8.905 6.584 9.022 6.209 9.254 C 5.831 9.493 5.496 9.76 5.198 10.059 L 4.974 8.308 C 5.383 7.983 5.815 7.732 6.272 7.552 C 6.728 7.372 7.246 7.282 7.83 7.282 C 8.404 7.282 8.881 7.398 9.262 7.63 C 9.644 7.87 9.928 8.183 10.114 8.57 C 10.304 8.957 10.402 9.38 10.402 9.835 C 10.402 10.195 10.35 10.554 10.249 10.908 C 10.153 11.27 9.991 11.668 9.764 12.103 C 9.534 12.538 9.232 13.043 8.848 13.623 L 7.734 15.316 L 10.742 15.316 L 10.742 16.938 Z M 15.35 17.129 C 14.693 17.129 14.117 16.985 13.626 16.694 C 13.136 16.396 12.758 15.982 12.486 15.453 C 12.216 14.928 12.081 14.308 12.081 13.599 C 12.081 12.835 12.213 12.123 12.479 11.467 C 12.744 10.802 13.094 10.201 13.528 9.661 C 13.958 9.119 14.426 8.647 14.929 8.245 C 15.438 7.84 15.93 7.521 16.407 7.282 L 17.608 8.228 C 17.37 8.345 17.082 8.512 16.75 8.73 C 16.41 8.947 16.063 9.205 15.708 9.502 C 15.353 9.803 15.02 10.14 14.713 10.51 C 14.401 10.888 14.151 11.297 13.958 11.737 C 13.769 12.175 13.671 12.643 13.671 13.135 L 13.186 12.539 C 13.426 12.152 13.743 11.841 14.14 11.602 C 14.538 11.362 15.056 11.243 15.692 11.243 C 16.217 11.243 16.689 11.365 17.108 11.61 C 17.528 11.853 17.86 12.19 18.103 12.62 C 18.341 13.05 18.46 13.543 18.46 14.1 C 18.46 14.698 18.333 15.226 18.079 15.684 C 17.83 16.138 17.47 16.494 17.006 16.749 C 16.538 17.003 15.985 17.129 15.35 17.129 Z M 15.372 15.698 C 15.807 15.698 16.167 15.547 16.455 15.246 C 16.748 14.949 16.893 14.587 16.893 14.163 C 16.893 13.74 16.748 13.385 16.455 13.105 C 16.167 12.818 15.807 12.676 15.372 12.676 C 14.938 12.676 14.578 12.818 14.293 13.105 C 14.005 13.385 13.863 13.74 13.863 14.163 C 13.863 14.587 14.005 14.949 14.293 15.246 C 14.578 15.547 14.938 15.698 15.372 15.698 Z M 22.291 17.115 C 21.77 17.115 21.293 17.048 20.858 16.915 C 20.428 16.778 20.038 16.591 19.69 16.359 L 20.095 14.791 C 20.428 14.998 20.768 15.166 21.113 15.293 C 21.457 15.426 21.838 15.49 22.257 15.49 C 22.771 15.49 23.18 15.355 23.485 15.085 C 23.786 14.815 23.938 14.447 23.938 13.988 C 23.938 13.495 23.765 13.108 23.427 12.826 C 23.083 12.546 22.588 12.404 21.941 12.404 C 21.637 12.404 21.34 12.422 21.05 12.46 C 20.75 12.498 20.457 12.543 20.165 12.595 L 20.771 7.472 L 25.234 7.472 L 25.129 9.151 L 22.076 9.151 L 21.748 11.776 L 21.095 11.18 C 21.312 11.116 21.542 11.068 21.78 11.035 C 22.014 11.005 22.27 10.989 22.543 10.989 C 23.149 10.989 23.683 11.108 24.145 11.347 C 24.605 11.58 24.965 11.92 25.226 12.373 C 25.486 12.818 25.616 13.357 25.616 13.988 C 25.616 14.641 25.472 15.201 25.186 15.667 C 24.901 16.134 24.507 16.492 24.01 16.741 C 23.503 16.989 22.932 17.115 22.291 17.115 Z M 29.147 16.938 L 27.333 16.938 L 30.874 8.435 L 31.365 9.096 L 26.873 9.096 L 26.873 7.472 L 33.092 7.472 L 29.147 16.938 Z M 38.798 13.177 L 38.798 14.695 L 34.835 14.695 L 34.835 13.177 L 38.798 13.177 Z M 39.33 16.938 L 36.593 9.159 L 37.039 9.159 L 34.311 16.938 L 32.633 16.938 L 35.998 7.472 L 37.636 7.472 L 41 16.938 L 39.33 16.938 Z" style="white-space: pre; fill: rgb(195, 204, 223);" bx:origin="0.474121 1.494668"/>
</svg>