<?xml version="1.0" encoding="utf-8"?>
<svg version="1.1" id="Capa_1" x="0px" y="0px" viewBox="0 0 60 60" style="enable-background:new 0 0 511.997 511.997;" xmlns="http://www.w3.org/2000/svg">
  <g transform="matrix(0.061524, 0.061524, -0.061524, 0.061524, 30.499704, 10.347407)">
    <g>
      <g>
        <path d="M211.26,389.24l-60.331,60.331c-25.012,25.012-65.517,25.012-90.508,0.005c-24.996-24.996-24.996-65.505-0.005-90.496 l120.683-120.683c24.991-24.992,65.5-24.992,90.491,0c8.331,8.331,21.839,8.331,30.17,0c8.331-8.331,8.331-21.839,0-30.17 c-41.654-41.654-109.177-41.654-150.831,0L30.247,328.909c-41.654,41.654-41.654,109.177,0,150.831 c41.649,41.676,109.177,41.676,150.853,0l60.331-60.331c8.331-8.331,8.331-21.839,0-30.17S219.591,380.909,211.26,389.24z"/>
        <path d="M479.751,30.24c-41.654-41.654-109.199-41.654-150.853,0l-72.384,72.384c-8.331,8.331-8.331,21.839,0,30.17 c8.331,8.331,21.839,8.331,30.17,0l72.384-72.384c24.991-24.992,65.521-24.992,90.513,0c24.991,24.991,24.991,65.5,0,90.491 L316.845,283.638c-24.992,24.992-65.5,24.992-90.491,0c-8.331-8.331-21.839-8.331-30.17,0s-8.331,21.839,0,30.17 c41.654,41.654,109.177,41.654,150.831,0l132.736-132.736C521.405,139.418,521.405,71.894,479.751,30.24z"/>
      </g>
    </g>
  </g>
  <g/>
  <g/>
  <g/>
  <g/>
  <g/>
  <g/>
  <g/>
  <g/>
  <g/>
  <g/>
  <g/>
  <g/>
  <g/>
  <g/>
  <g/>
  <path d="M 14.406 22.52 L 6.187 22.52 L 9.672 17.163 C 10.132 16.458 10.5 15.86 10.775 15.37 C 11.057 14.888 11.262 14.46 11.388 14.09 C 11.513 13.725 11.577 13.369 11.577 13.02 C 11.577 12.471 11.424 12.044 11.12 11.74 C 10.816 11.428 10.389 11.272 9.84 11.272 C 9.179 11.272 8.584 11.436 8.058 11.762 C 7.531 12.096 7.059 12.471 6.643 12.887 L 6.331 10.437 C 6.903 9.983 7.509 9.631 8.147 9.379 C 8.785 9.126 9.513 9 10.33 9 C 11.131 9 11.8 9.164 12.334 9.49 C 12.869 9.824 13.266 10.262 13.526 10.804 C 13.793 11.347 13.927 11.937 13.927 12.575 C 13.927 13.079 13.857 13.581 13.715 14.078 C 13.581 14.583 13.355 15.14 13.036 15.749 C 12.716 16.358 12.29 17.066 11.755 17.876 L 10.196 20.248 L 14.406 20.248 L 14.406 22.52 Z M 20.857 22.787 C 19.936 22.787 19.131 22.584 18.441 22.175 C 17.758 21.76 17.227 21.18 16.848 20.438 C 16.469 19.703 16.28 18.837 16.28 17.843 C 16.28 16.774 16.466 15.779 16.837 14.858 C 17.208 13.93 17.698 13.087 18.307 12.33 C 18.908 11.573 19.562 10.912 20.267 10.348 C 20.98 9.783 21.67 9.334 22.338 9 L 24.02 10.325 C 23.686 10.489 23.285 10.723 22.817 11.027 C 22.342 11.331 21.856 11.692 21.358 12.107 C 20.861 12.53 20.397 13.001 19.966 13.522 C 19.529 14.048 19.176 14.621 18.908 15.237 C 18.641 15.853 18.507 16.506 18.507 17.197 L 17.828 16.361 C 18.162 15.819 18.608 15.381 19.164 15.047 C 19.721 14.713 20.445 14.546 21.336 14.546 C 22.071 14.546 22.732 14.717 23.318 15.058 C 23.905 15.4 24.369 15.871 24.711 16.473 C 25.045 17.074 25.212 17.765 25.212 18.544 C 25.212 19.383 25.034 20.122 24.677 20.761 C 24.329 21.399 23.827 21.896 23.174 22.253 C 22.52 22.609 21.748 22.787 20.857 22.787 Z M 20.891 20.783 C 21.5 20.783 22.004 20.571 22.405 20.148 C 22.814 19.733 23.018 19.227 23.018 18.633 C 23.018 18.04 22.814 17.545 22.405 17.152 C 22.004 16.751 21.5 16.551 20.891 16.551 C 20.281 16.551 19.777 16.751 19.376 17.152 C 18.975 17.545 18.775 18.04 18.775 18.633 C 18.775 19.227 18.975 19.733 19.376 20.148 C 19.777 20.571 20.281 20.783 20.891 20.783 Z M 30.384 22.787 C 29.589 22.787 28.865 22.695 28.212 22.509 C 27.558 22.323 27.038 22.13 26.653 21.93 L 27.232 19.892 C 27.655 20.1 28.137 20.285 28.68 20.449 C 29.221 20.619 29.789 20.705 30.384 20.705 C 31.074 20.705 31.627 20.546 32.043 20.226 C 32.458 19.906 32.667 19.416 32.667 18.756 C 32.667 18.088 32.466 17.587 32.065 17.252 C 31.657 16.911 31.044 16.74 30.228 16.74 L 28.88 16.74 L 28.88 14.468 L 30.205 14.468 C 30.888 14.468 31.412 14.312 31.776 14 C 32.132 13.681 32.31 13.246 32.31 12.697 C 32.31 12.207 32.143 11.818 31.809 11.528 C 31.482 11.231 31.007 11.083 30.384 11.083 C 29.841 11.083 29.332 11.164 28.858 11.328 C 28.382 11.491 27.911 11.706 27.444 11.974 L 27.087 9.835 C 27.525 9.605 28.045 9.409 28.646 9.245 C 29.248 9.081 29.908 9 30.629 9 C 31.49 9 32.217 9.148 32.812 9.445 C 33.405 9.735 33.854 10.136 34.159 10.648 C 34.471 11.161 34.627 11.74 34.627 12.386 C 34.627 13.24 34.396 13.964 33.936 14.557 C 33.483 15.151 32.84 15.552 32.01 15.76 L 31.987 15.326 C 32.907 15.474 33.658 15.841 34.237 16.428 C 34.808 17.015 35.095 17.79 35.095 18.756 C 35.095 19.617 34.897 20.348 34.504 20.95 C 34.11 21.551 33.561 22.008 32.856 22.32 C 32.143 22.632 31.319 22.787 30.384 22.787 Z M 40.778 22.765 C 40.049 22.765 39.381 22.673 38.773 22.487 C 38.172 22.294 37.626 22.033 37.136 21.707 L 37.704 19.513 C 38.172 19.803 38.646 20.037 39.129 20.215 C 39.612 20.401 40.146 20.493 40.733 20.493 C 41.453 20.493 42.025 20.304 42.448 19.925 C 42.871 19.547 43.083 19.034 43.083 18.388 C 43.083 17.698 42.845 17.156 42.37 16.762 C 41.887 16.369 41.193 16.172 40.288 16.172 C 39.864 16.172 39.448 16.198 39.04 16.25 C 38.624 16.302 38.212 16.365 37.804 16.439 L 38.651 9.267 L 44.898 9.267 L 44.754 11.617 L 40.477 11.617 L 40.02 15.292 L 39.107 14.457 C 39.411 14.368 39.731 14.301 40.065 14.257 C 40.391 14.212 40.748 14.19 41.134 14.19 C 41.98 14.19 42.727 14.357 43.373 14.691 C 44.019 15.017 44.523 15.496 44.887 16.128 C 45.25 16.751 45.433 17.505 45.433 18.388 C 45.433 19.302 45.232 20.085 44.832 20.738 C 44.431 21.392 43.88 21.893 43.183 22.242 C 42.477 22.59 41.675 22.765 40.778 22.765 Z M 53.36 22.52 L 47.836 22.52 L 47.836 9.267 L 52.837 9.267 C 54.114 9.267 55.064 9.542 55.688 10.091 C 56.311 10.634 56.623 11.424 56.623 12.464 C 56.623 13.243 56.45 13.892 56.1 14.413 C 55.743 14.933 55.217 15.311 54.518 15.548 L 54.518 15.103 C 55.581 15.326 56.372 15.741 56.891 16.35 C 57.418 16.952 57.681 17.754 57.681 18.756 C 57.681 19.944 57.296 20.869 56.523 21.529 C 55.759 22.189 54.704 22.52 53.36 22.52 Z M 50.264 16.629 L 50.264 20.36 L 53.004 20.36 C 53.665 20.36 54.192 20.226 54.585 19.959 C 54.986 19.684 55.187 19.194 55.187 18.489 C 55.187 17.768 54.975 17.278 54.552 17.019 C 54.136 16.759 53.621 16.629 53.004 16.629 L 50.264 16.629 Z M 50.264 11.428 L 50.264 14.468 L 52.469 14.468 C 53.056 14.468 53.498 14.349 53.794 14.112 C 54.092 13.875 54.24 13.488 54.24 12.954 C 54.24 12.411 54.092 12.021 53.794 11.784 C 53.498 11.547 53.056 11.428 52.469 11.428 L 50.264 11.428 Z" style="white-space: pre;"/>
</svg>