<?xml version="1.0" encoding="utf-8"?>
<svg version="1.1" id="Capa_1" x="0px" y="0px" viewBox="0 0 60 60" style="enable-background:new 0 0 511.997 511.997;" xmlns="http://www.w3.org/2000/svg">
  <g transform="matrix(0.061524, 0.061524, -0.061524, 0.061524, 30.499704, 11.290407)">
    <g>
      <g>
        <path d="M211.26,389.24l-60.331,60.331c-25.012,25.012-65.517,25.012-90.508,0.005c-24.996-24.996-24.996-65.505-0.005-90.496 l120.683-120.683c24.991-24.992,65.5-24.992,90.491,0c8.331,8.331,21.839,8.331,30.17,0c8.331-8.331,8.331-21.839,0-30.17 c-41.654-41.654-109.177-41.654-150.831,0L30.247,328.909c-41.654,41.654-41.654,109.177,0,150.831 c41.649,41.676,109.177,41.676,150.853,0l60.331-60.331c8.331-8.331,8.331-21.839,0-30.17S219.591,380.909,211.26,389.24z"/>
        <path d="M479.751,30.24c-41.654-41.654-109.199-41.654-150.853,0l-72.384,72.384c-8.331,8.331-8.331,21.839,0,30.17 c8.331,8.331,21.839,8.331,30.17,0l72.384-72.384c24.991-24.992,65.521-24.992,90.513,0c24.991,24.991,24.991,65.5,0,90.491 L316.845,283.638c-24.992,24.992-65.5,24.992-90.491,0c-8.331-8.331-21.839-8.331-30.17,0s-8.331,21.839,0,30.17 c41.654,41.654,109.177,41.654,150.831,0l132.736-132.736C521.405,139.418,521.405,71.894,479.751,30.24z"/>
      </g>
    </g>
  </g>
  <g/>
  <g/>
  <g/>
  <g/>
  <g/>
  <g/>
  <g/>
  <g/>
  <g/>
  <g/>
  <g/>
  <g/>
  <g/>
  <g/>
  <g/>
  <path d="M 14.406 23.463 L 6.187 23.463 L 9.672 18.106 C 10.132 17.401 10.5 16.803 10.775 16.313 C 11.057 15.831 11.262 15.403 11.388 15.033 C 11.513 14.668 11.577 14.312 11.577 13.963 C 11.577 13.414 11.424 12.987 11.12 12.683 C 10.816 12.371 10.389 12.215 9.84 12.215 C 9.179 12.215 8.584 12.379 8.058 12.705 C 7.531 13.039 7.059 13.414 6.643 13.83 L 6.331 11.38 C 6.903 10.926 7.509 10.574 8.147 10.322 C 8.785 10.069 9.513 9.943 10.33 9.943 C 11.131 9.943 11.8 10.107 12.334 10.433 C 12.869 10.767 13.266 11.205 13.526 11.747 C 13.793 12.29 13.927 12.88 13.927 13.518 C 13.927 14.022 13.857 14.524 13.715 15.021 C 13.581 15.526 13.355 16.083 13.036 16.692 C 12.716 17.301 12.29 18.009 11.755 18.819 L 10.196 21.191 L 14.406 21.191 L 14.406 23.463 Z M 20.857 23.73 C 19.936 23.73 19.131 23.527 18.441 23.118 C 17.758 22.703 17.227 22.123 16.848 21.381 C 16.469 20.646 16.28 19.78 16.28 18.786 C 16.28 17.717 16.466 16.722 16.837 15.801 C 17.208 14.873 17.698 14.03 18.307 13.273 C 18.908 12.516 19.562 11.855 20.267 11.291 C 20.98 10.726 21.67 10.277 22.338 9.943 L 24.02 11.268 C 23.686 11.432 23.285 11.666 22.817 11.97 C 22.342 12.274 21.856 12.635 21.358 13.05 C 20.861 13.473 20.397 13.944 19.966 14.465 C 19.529 14.991 19.176 15.564 18.908 16.18 C 18.641 16.796 18.507 17.449 18.507 18.14 L 17.828 17.304 C 18.162 16.762 18.608 16.324 19.164 15.99 C 19.721 15.656 20.445 15.489 21.336 15.489 C 22.071 15.489 22.732 15.66 23.318 16.001 C 23.905 16.343 24.369 16.814 24.711 17.416 C 25.045 18.017 25.212 18.708 25.212 19.487 C 25.212 20.326 25.034 21.065 24.677 21.704 C 24.329 22.342 23.827 22.839 23.174 23.196 C 22.52 23.552 21.748 23.73 20.857 23.73 Z M 20.891 21.726 C 21.5 21.726 22.004 21.514 22.405 21.091 C 22.814 20.676 23.018 20.17 23.018 19.576 C 23.018 18.983 22.814 18.488 22.405 18.095 C 22.004 17.694 21.5 17.494 20.891 17.494 C 20.281 17.494 19.777 17.694 19.376 18.095 C 18.975 18.488 18.775 18.983 18.775 19.576 C 18.775 20.17 18.975 20.676 19.376 21.091 C 19.777 21.514 20.281 21.726 20.891 21.726 Z M 30.573 23.708 C 29.845 23.708 29.176 23.616 28.568 23.43 C 27.967 23.237 27.421 22.976 26.931 22.65 L 27.499 20.456 C 27.967 20.746 28.441 20.98 28.925 21.158 C 29.407 21.344 29.942 21.436 30.528 21.436 C 31.248 21.436 31.82 21.247 32.244 20.868 C 32.667 20.49 32.878 19.977 32.878 19.331 C 32.878 18.641 32.64 18.099 32.166 17.705 C 31.682 17.312 30.988 17.115 30.083 17.115 C 29.66 17.115 29.243 17.141 28.836 17.193 C 28.419 17.245 28.007 17.308 27.599 17.382 L 28.446 10.21 L 34.694 10.21 L 34.549 12.56 L 30.272 12.56 L 29.816 16.235 L 28.902 15.4 C 29.207 15.311 29.526 15.244 29.86 15.2 C 30.187 15.155 30.543 15.133 30.929 15.133 C 31.776 15.133 32.522 15.3 33.168 15.634 C 33.814 15.96 34.318 16.439 34.683 17.071 C 35.046 17.694 35.228 18.448 35.228 19.331 C 35.228 20.245 35.028 21.028 34.627 21.681 C 34.226 22.335 33.676 22.836 32.979 23.185 C 32.272 23.533 31.471 23.708 30.573 23.708 Z M 40.172 23.463 L 37.633 23.463 L 42.589 11.558 L 43.279 12.482 L 36.987 12.482 L 36.987 10.21 L 45.696 10.21 L 40.172 23.463 Z M 53.682 18.195 L 53.682 20.323 L 48.136 20.323 L 48.136 18.195 L 53.682 18.195 Z M 54.428 23.463 L 50.597 12.571 L 51.221 12.571 L 47.401 23.463 L 45.051 23.463 L 49.762 10.21 L 52.056 10.21 L 56.767 23.463 L 54.428 23.463 Z" style="white-space: pre;"/>
</svg>