<?xml version="1.0" encoding="utf-8"?>
<svg height="511pt" viewBox="-1 0 60 60" width="511pt" xmlns="http://www.w3.org/2000/svg">
  <path d="M 2.683 28.907 C 3.836 21.302 8.214 14.526 14.693 10.317 C 19.219 7.379 24.38 5.906 29.7 5.972 L 27.729 4.002 C 26.815 3.086 26.815 1.601 27.729 0.687 C 28.645 -0.229 30.129 -0.229 31.045 0.687 L 37.71 7.352 C 38.943 8.206 39.033 9.968 38.022 10.979 L 31.045 17.956 C 30.129 18.872 28.645 18.872 27.729 17.956 C 26.815 17.041 26.815 15.557 27.729 14.642 L 31.602 10.769 C 26.509 10.281 21.528 11.468 17.247 14.249 C 11.889 17.729 8.271 23.327 7.318 29.61 C 7.125 30.886 5.932 31.77 4.649 31.575 C 3.369 31.381 2.489 30.186 2.683 28.907 Z M 37.498 53.788 C 31.581 56.103 24.924 55.769 19.231 52.869 C 14.683 50.552 11.164 46.833 9.041 42.178 L 14.326 43.594 C 15.577 43.929 16.861 43.186 17.196 41.937 C 17.532 40.686 16.79 39.4 15.539 39.065 L 6.006 36.512 C 4.63 36.143 3.172 37.101 3.03 38.562 L 0.581 47.7 C 0.246 48.951 0.988 50.237 2.238 50.572 C 3.497 50.909 4.776 50.156 5.108 48.915 L 5.832 46.215 C 8.436 50.859 12.292 54.595 17.104 57.046 C 23.849 60.483 31.904 61.011 39.206 58.152 C 40.412 57.681 41.006 56.321 40.535 55.116 C 40.062 53.91 38.702 53.316 37.498 53.788 Z M 58.193 47.7 C 57.859 46.451 56.573 45.707 55.323 46.042 L 52.624 46.766 C 55.342 42.19 56.648 36.984 56.365 31.594 C 55.959 23.879 52.281 16.7 46.272 11.899 C 45.261 11.091 43.786 11.256 42.978 12.268 C 42.17 13.279 42.335 14.754 43.346 15.561 C 48.31 19.527 51.349 25.461 51.684 31.84 C 51.952 36.936 50.49 41.843 47.523 46.009 L 46.105 40.722 C 45.77 39.473 44.486 38.73 43.235 39.065 C 41.985 39.4 41.243 40.686 41.578 41.937 L 44.132 51.467 C 44.51 52.876 46.07 53.646 47.42 53.013 L 56.536 50.571 C 57.787 50.236 58.528 48.951 58.193 47.7 Z M 58.193 47.7"/>
</svg>