<?xml version="1.0" encoding="utf-8"?>
<svg height="0pt" viewBox="0 -31 60 60" width="0pt" xmlns="http://www.w3.org/2000/svg">
  <path d="M 54.727 -27 L 5.273 -27 C 2.366 -27 0 -24.634 0 -21.727 L 0 20.461 C 0 23.369 2.366 25.734 5.273 25.734 L 54.727 25.734 C 57.634 25.734 60 23.369 60 20.461 L 60 -21.727 C 60 -24.634 57.634 -27 54.727 -27 Z M 56.484 20.461 C 56.484 21.43 55.696 22.219 54.727 22.219 L 5.273 22.219 C 4.304 22.219 3.516 21.43 3.516 20.461 L 3.516 -21.727 C 3.516 -22.696 4.304 -23.484 5.273 -23.484 L 54.727 -23.484 C 55.696 -23.484 56.484 -22.696 56.484 -21.727 Z M 56.484 20.461"/>
  <path d="M 51.094 -19.969 L 8.906 -19.969 C 7.935 -19.969 7.148 -19.182 7.148 -18.211 L 7.148 2.883 C 7.148 3.854 7.935 4.641 8.906 4.641 L 10.664 4.641 L 10.664 9.914 C 10.664 10.885 11.451 11.672 12.422 11.672 L 17.695 11.672 L 17.695 16.945 C 17.695 17.916 18.482 18.703 19.453 18.703 L 40.547 18.703 C 41.518 18.703 42.305 17.916 42.305 16.945 L 42.305 11.672 L 47.578 11.672 C 48.549 11.672 49.336 10.885 49.336 9.914 L 49.336 4.641 L 51.094 4.641 C 52.065 4.641 52.852 3.854 52.852 2.883 L 52.852 -18.211 C 52.852 -19.182 52.065 -19.969 51.094 -19.969 Z M 49.336 1.125 L 47.578 1.125 C 46.607 1.125 45.82 1.912 45.82 2.883 L 45.82 8.156 L 40.547 8.156 C 39.576 8.156 38.789 8.943 38.789 9.914 L 38.789 15.187 L 21.211 15.187 L 21.211 9.914 C 21.211 8.943 20.424 8.156 19.453 8.156 L 14.18 8.156 L 14.18 2.883 C 14.18 1.912 13.393 1.125 12.422 1.125 L 10.664 1.125 L 10.664 -16.453 L 49.336 -16.453 Z M 49.336 1.125"/>
  <path d="M 15.938 -2.391 C 16.908 -2.391 17.695 -3.178 17.695 -4.148 L 17.695 -11.18 C 17.695 -12.151 16.908 -12.938 15.938 -12.938 C 14.967 -12.938 14.18 -12.151 14.18 -11.18 L 14.18 -4.148 C 14.18 -3.178 14.967 -2.391 15.938 -2.391 Z M 15.938 -2.391"/>
  <path d="M 22.969 -2.391 C 23.94 -2.391 24.727 -3.178 24.727 -4.148 L 24.727 -11.18 C 24.727 -12.151 23.94 -12.938 22.969 -12.938 C 21.998 -12.938 21.211 -12.151 21.211 -11.18 L 21.211 -4.148 C 21.211 -3.178 21.998 -2.391 22.969 -2.391 Z M 22.969 -2.391"/>
  <path d="M 30 -2.391 C 30.971 -2.391 31.758 -3.178 31.758 -4.148 L 31.758 -11.18 C 31.758 -12.151 30.971 -12.938 30 -12.938 C 29.029 -12.938 28.242 -12.151 28.242 -11.18 L 28.242 -4.148 C 28.242 -3.178 29.029 -2.391 30 -2.391 Z M 30 -2.391"/>
  <path d="M 37.031 -2.391 C 38.002 -2.391 38.789 -3.178 38.789 -4.148 L 38.789 -11.18 C 38.789 -12.151 38.002 -12.938 37.031 -12.938 C 36.06 -12.938 35.273 -12.151 35.273 -11.18 L 35.273 -4.148 C 35.273 -3.178 36.06 -2.391 37.031 -2.391 Z M 37.031 -2.391"/>
  <path d="M 44.063 -2.391 C 45.033 -2.391 45.82 -3.178 45.82 -4.148 L 45.82 -11.18 C 45.82 -12.151 45.033 -12.938 44.063 -12.938 C 43.092 -12.938 42.305 -12.151 42.305 -11.18 L 42.305 -4.148 C 42.305 -3.178 43.092 -2.391 44.063 -2.391 Z M 44.063 -2.391"/>
</svg>