<?xml version="1.0" encoding="utf-8"?>
<svg id="Layer_1" data-name="Layer 1" viewBox="-18 7 60 61" xmlns="http://www.w3.org/2000/svg">
  <path d="M 12.023 7.456 C -11.055 7.456 -25.477 32.438 -13.938 52.423 C -2.402 72.408 26.447 72.408 37.984 52.423 C 40.617 47.866 42.001 42.695 42.001 37.434 C 41.983 20.886 28.57 7.474 12.023 7.456 Z M 12.023 62.415 C -7.208 62.415 -19.227 41.598 -9.611 24.943 C 0.004 8.288 24.041 8.288 33.657 24.943 C 35.85 28.74 37.004 33.05 37.004 37.434 C 36.989 51.224 25.813 62.4 12.023 62.415 Z M 24.513 37.434 C 24.513 38.813 23.394 39.932 22.015 39.932 L 14.521 39.932 L 14.521 47.426 C 14.521 49.35 12.44 50.552 10.774 49.59 C 10.002 49.143 9.525 48.318 9.525 47.426 L 9.525 39.932 L 2.03 39.932 C 0.107 39.932 -1.095 37.851 -0.133 36.185 C 0.314 35.413 1.138 34.936 2.03 34.936 L 9.525 34.936 L 9.525 27.441 C 9.525 25.518 11.606 24.316 13.272 25.278 C 14.044 25.725 14.521 26.549 14.521 27.441 L 14.521 34.936 L 22.015 34.936 C 23.394 34.936 24.513 36.055 24.513 37.434 Z" transform="matrix(0.707107, 0.707107, -0.707107, 0.707107, 29.984695, 2.478291)"/>
</svg>