<?xml version="1.0" encoding="utf-8"?>
<svg id="Outline" viewBox="0 0 40 40" xmlns="http://www.w3.org/2000/svg">
  <title>90 exclamation</title>
  <path d="M 20 0 C 4.604 0 -5.019 16.667 2.679 30 C 10.377 43.333 29.623 43.333 37.321 30 C 39.076 26.96 40 23.511 40 20 C 39.988 8.959 31.041 0.012 20 0 Z M 20 36.667 C 7.17 36.667 -0.849 22.778 5.566 11.667 C 11.981 0.556 28.019 0.556 34.434 11.667 C 35.897 14.2 36.667 17.074 36.667 20 C 36.657 29.201 29.201 36.657 20 36.667 Z"/>
  <path d="M 20 8.333 C 19.08 8.333 18.333 9.08 18.333 10 L 18.333 23.333 C 18.333 24.616 19.722 25.418 20.833 24.777 C 21.349 24.479 21.667 23.929 21.667 23.333 L 21.667 10 C 21.667 9.08 20.92 8.333 20 8.333 Z"/>
  <rect x="18.333" y="28.333" width="3.333" height="3.333" rx="1"/>
</svg>