<svg id="Layer_5" enable-background="new 0 0 64 64" height="512" viewBox="0 0 64 64" width="512" xmlns="http://www.w3.org/2000/svg"><g><path d="m58 11h-52c-2.757 0-5 2.243-5 5v28c0 2.757 2.243 5 5 5h1v1c0 1.654 1.346 3 3 3h6c1.654 0 3-1.346 3-3v-1h26v1c0 1.654 1.346 3 3 3h6c1.654 0 3-1.346 3-3v-1h1c2.757 0 5-2.243 5-5v-28c0-2.757-2.243-5-5-5zm-41 39c0 .551-.449 1-1 1h-6c-.551 0-1-.449-1-1v-1h8zm38 0c0 .551-.449 1-1 1h-6c-.551 0-1-.449-1-1v-1h8zm6-6c0 1.654-1.346 3-3 3h-52c-1.654 0-3-1.346-3-3v-28c0-1.654 1.346-3 3-3h52c1.654 0 3 1.346 3 3z"/><path d="m41 15h-34c-1.103 0-2 .897-2 2v18c0 1.103.897 2 2 2h34c1.103 0 2-.897 2-2v-18c0-1.103-.897-2-2-2zm0 2v2h-1c-1.557 0-3.021.606-4.121 1.707l-1.172 1.172c-1.446 1.446-3.968 1.446-5.414 0l-1.172-1.172c-1.1-1.101-2.564-1.707-4.121-1.707s-3.021.606-4.121 1.707l-1.172 1.172c-1.446 1.446-3.968 1.446-5.414 0l-1.172-1.172c-1.1-1.101-2.564-1.707-4.121-1.707h-1v-2zm-32 13.852c-.324.087-.656.148-1 .148h-1v-10h1c.344 0 .676.061 1 .148zm2-8.438.879.879c.341.341.719.628 1.121.87v3.674c-.402.243-.781.53-1.121.87l-.879.879zm4 2.496c.328.056.661.09 1 .09s.672-.034 1-.09v2.181c-.328-.057-.661-.091-1-.091s-.672.034-1 .09zm4-.747c.402-.243.781-.53 1.121-.87l.879-.879v7.172l-.879-.879c-.341-.341-.719-.628-1.121-.87zm4-2.985c.655-.168 1.345-.168 2 0v9.644c-.655.168-1.345.168-2 0zm4 1.236.879.879c.341.341.719.628 1.121.87v3.674c-.402.243-.781.53-1.121.87l-.879.879zm4 2.496c.328.056.661.09 1 .09s.672-.034 1-.09v2.181c-.328-.057-.661-.091-1-.091s-.672.034-1 .09zm4-.747c.402-.243.781-.53 1.121-.87l.879-.879v7.172l-.879-.879c-.341-.341-.719-.628-1.121-.87zm4-3.015c.324-.087.656-.148 1-.148h1l.001 10h-1.001c-.344 0-.676-.061-1-.148zm-32 13.852v-2h1c1.557 0 3.021-.606 4.121-1.707l1.172-1.172c1.446-1.446 3.968-1.446 5.414 0l1.172 1.172c1.1 1.101 2.564 1.707 4.121 1.707s3.021-.606 4.121-1.707l1.172-1.172c1.446-1.446 3.968-1.446 5.414 0l1.172 1.172c1.1 1.101 2.564 1.707 4.121 1.707h1.001v2z"/><path d="m8 39c-1.654 0-3 1.346-3 3s1.346 3 3 3 3-1.346 3-3-1.346-3-3-3zm0 4c-.551 0-1-.449-1-1s.449-1 1-1 1 .449 1 1-.449 1-1 1z"/><path d="m13 45h8v-6h-8zm2-4h4v2h-4z"/><path d="m23 45h8v-6h-8zm2-4h4v2h-4z"/><path d="m33 45h8v-6h-8zm2-4h4v2h-4z"/><path d="m57 15h2v2h-2z"/><path d="m49 15h2v2h-2z"/><path d="m45 15h2v2h-2z"/><path d="m53 15h2v2h-2z"/><path d="m45 19h2v2h-2z"/><path d="m49 19h2v2h-2z"/><path d="m53 19h2v2h-2z"/><path d="m57 19h2v2h-2z"/><path d="m53 23h2v2h-2z"/><path d="m57 23h2v2h-2z"/><path d="m45 23h2v2h-2z"/><path d="m49 23h2v2h-2z"/><path d="m45 27h14v2h-14z"/><path d="m48 31c-1.654 0-3 1.346-3 3s1.346 3 3 3 3-1.346 3-3-1.346-3-3-3zm0 4c-.551 0-1-.449-1-1s.449-1 1-1 1 .449 1 1-.449 1-1 1z"/><path d="m56 31c-1.654 0-3 1.346-3 3s1.346 3 3 3 3-1.346 3-3-1.346-3-3-3zm0 4c-.551 0-1-.449-1-1s.449-1 1-1 1 .449 1 1-.449 1-1 1z"/><path d="m48 39c-1.654 0-3 1.346-3 3s1.346 3 3 3 3-1.346 3-3-1.346-3-3-3zm0 4c-.551 0-1-.449-1-1s.449-1 1-1 1 .449 1 1-.449 1-1 1z"/><path d="m56 39c-1.654 0-3 1.346-3 3s1.346 3 3 3 3-1.346 3-3-1.346-3-3-3zm0 4c-.551 0-1-.449-1-1s.449-1 1-1 1 .449 1 1-.449 1-1 1z"/></g></svg>