<svg id="レイヤー_1" data-name="レイヤー 1" xmlns="http://www.w3.org/2000/svg" viewBox="0 0 117.29 17.99"><defs><style>.cls-1{fill:#0054a7;}.cls-2,.cls-3{fill:#fff;}.cls-2,.cls-4{stroke:#0054a7;stroke-width:0.42px;}.cls-4{fill:none;}</style></defs><path class="cls-1" d="M18.33,9a8.91,8.91,0,0,1-9,8.78A8.91,8.91,0,0,1,.27,9,8.91,8.91,0,0,1,9.3.21,8.91,8.91,0,0,1,18.33,9Z"/><path class="cls-2" d="M11.39,8.18C10.29,4.29,5.86,5.65,4.32,7"/><path class="cls-2" d="M16.24,6.29C16.45,4.85,13,1,8.06,4.85"/><polygon class="cls-3" points="2.53 14.8 6.71 17.32 6.64 10.34 2.53 9.14 2.53 14.8"/><polygon class="cls-3" points="7.38 17.5 11.49 17.57 11.25 8.11 7.42 6.94 7.38 17.5"/><polygon class="cls-3" points="12.52 17.18 16.34 14.52 16.06 6.2 12.1 5.14 12.52 17.18"/><polygon class="cls-3" points="3.98 16.01 2.57 14.73 2.48 11.05 2.36 9.85 1.72 9.07 3.44 9.37 4.13 8.61 4.31 9.62 6.75 17.39 6.15 17.21 3.98 16.01"/><polygon class="cls-3" points="8.91 17.78 7.38 17.53 7.4 9.9 7.14 8.57 5.86 7.01 7.92 7.19 8.72 7.94 8.87 8.76 11.49 17.46 10.64 17.64 8.91 17.78"/><polygon class="cls-3" points="14.19 16.4 12.48 17.18 12.13 7.86 11.56 6.2 10.43 5.28 12.48 4.71 13.07 5.59 16.27 6.16 16.27 14.24 15.71 15.19 14.19 16.4"/><path class="cls-2" d="M6.75,10.7C6.82,8.5,4.09,6.3,1.12,9"/><line class="cls-4" x1="6.78" y1="17.36" x2="6.78" y2="10.55"/><line class="cls-4" x1="2.46" y1="14.73" x2="2.46" y2="10.84"/><path class="cls-4" d="M2.46,11c0-1.06-.68-2-1.34-2"/><path class="cls-4" d="M7.35,10.27c0-1.64-.92-3.51-3.12-3.29"/><line class="cls-4" x1="7.35" y1="17.57" x2="7.35" y2="10.06"/><line class="cls-4" x1="11.53" y1="17.57" x2="11.39" y2="8.15"/><line class="cls-4" x1="12.38" y1="17.28" x2="12.02" y2="7.72"/><path class="cls-4" d="M12,7.83c0-1.56-1.45-3-3.95-2.94"/><line class="cls-4" x1="16.42" y1="14.34" x2="16.27" y2="6.05"/><path class="cls-4" d="M18.27,9a8.91,8.91,0,0,1-9,8.78A8.91,8.91,0,0,1,.21,9a8.92,8.92,0,0,1,9-8.79A8.91,8.91,0,0,1,18.27,9Z"/><path class="cls-1" d="M36.28,17.59H34.76L35.9,8.91c.18-1.4.52-3.52.76-4.86H36.6c-.68,1.46-1.48,3.18-2.26,4.68l-4.68,8.8H28.48L27.34,8.85c-.24-1.7-.38-3.34-.46-4.8h-.06c-.3,1.32-.74,3.46-1.1,4.86l-2.18,8.68H22L26,2.35h2l1.24,9.28c.14,1.26.3,2.56.36,3.62h.06c.42-1.06,1-2.32,1.66-3.56L36.2,2.35h2Z"/><path class="cls-1" d="M38,11.85C38,8,40.12,2.11,45.6,2.11c3.94,0,5.36,3,5.36,6.08,0,3.82-2.06,9.64-7.6,9.64C39.46,17.83,38,14.73,38,11.85ZM49.3,8.27c0-2.2-.62-4.82-3.9-4.82-4.38,0-5.78,5.7-5.78,8.24,0,2.38,1,4.8,3.94,4.8C48.08,16.49,49.3,10.61,49.3,8.27Z"/><path class="cls-1" d="M52.92,17.59,55.54,3.73h-4.3l.28-1.36H61.7l-.28,1.36H57.14L54.5,17.59Z"/><path class="cls-1" d="M59.15,11.85c0-3.84,2.17-9.74,7.65-9.74,3.94,0,5.36,3,5.36,6.08,0,3.82-2.06,9.64-7.6,9.64C60.66,17.83,59.15,14.73,59.15,11.85ZM70.5,8.27c0-2.2-.62-4.82-3.9-4.82-4.39,0-5.78,5.7-5.78,8.24,0,2.38,1,4.8,3.94,4.8C69.28,16.49,70.5,10.61,70.5,8.27Z"/><path class="cls-1" d="M76,17.59H74.43l1.23-6.38L72.89,2.35h1.69l1.48,5.08c.35,1.32.5,2,.62,2.54h0c.36-.62.88-1.52,1.6-2.62l3.38-5h1.82l-6.28,8.86Z"/><path class="cls-1" d="M89.12,12.63H84l-2.46,5H79.83L87.58,2.35h1.78l2,15.24h-1.6Zm-4.59-1.28H89l-.59-4.54-.25-2.9H88.1c-.39.94-.82,1.92-1.28,2.86Z"/><path class="cls-1" d="M105.66,17.59h-1.52l1.14-8.68c.18-1.4.52-3.52.76-4.86H106c-.68,1.46-1.48,3.18-2.26,4.68L99,17.53H97.85L96.71,8.85c-.24-1.7-.38-3.34-.46-4.8h-.06c-.3,1.32-.74,3.46-1.1,4.86l-2.18,8.68h-1.5L95.35,2.35h2l1.24,9.28c.14,1.26.3,2.56.36,3.62H99c.42-1.06,1-2.32,1.66-3.56l5-9.34h2Z"/><path class="cls-1" d="M115.09,12.63h-5.16l-2.46,5h-1.66l7.74-15.24h1.78l2,15.24h-1.6Zm-4.58-1.28H115l-.58-4.54-.26-2.9h-.06c-.38.94-.82,1.92-1.28,2.86Z"/></svg>