<?xml version="1.0" encoding="utf-8"?>
<svg id="レイヤー_1" data-name="レイヤー 1" viewBox="0 0 19 17.99" xmlns="http://www.w3.org/2000/svg">
  <defs>
    <style>.cls-1{fill:#0054a7;}.cls-2,.cls-3{fill:#fff;}.cls-2,.cls-4{stroke:#0054a7;stroke-width:0.42px;}.cls-4{fill:none;}</style>
  </defs>
  <path class="cls-1" d="M18.33,9a8.91,8.91,0,0,1-9,8.78A8.91,8.91,0,0,1,.27,9,8.91,8.91,0,0,1,9.3.21,8.91,8.91,0,0,1,18.33,9Z" style="fill: rgb(79, 159, 238);"/>
  <path class="cls-2" d="M11.39,8.18C10.29,4.29,5.86,5.65,4.32,7" style="stroke: rgb(79, 159, 238);"/>
  <path class="cls-2" d="M16.24,6.29C16.45,4.85,13,1,8.06,4.85" style="stroke: rgb(79, 159, 238);"/>
  <polygon class="cls-3" points="2.53 14.8 6.71 17.32 6.64 10.34 2.53 9.14 2.53 14.8"/>
  <polygon class="cls-3" points="7.38 17.5 11.49 17.57 11.25 8.11 7.42 6.94 7.38 17.5"/>
  <polygon class="cls-3" points="12.52 17.18 16.34 14.52 16.06 6.2 12.1 5.14 12.52 17.18"/>
  <polygon class="cls-3" points="3.98 16.01 2.57 14.73 2.48 11.05 2.36 9.85 1.72 9.07 3.44 9.37 4.13 8.61 4.31 9.62 6.75 17.39 6.15 17.21 3.98 16.01"/>
  <polygon class="cls-3" points="8.91 17.78 7.38 17.53 7.4 9.9 7.14 8.57 5.86 7.01 7.92 7.19 8.72 7.94 8.87 8.76 11.49 17.46 10.64 17.64 8.91 17.78"/>
  <polygon class="cls-3" points="14.19 16.4 12.48 17.18 12.13 7.86 11.56 6.2 10.43 5.28 12.48 4.71 13.07 5.59 16.27 6.16 16.27 14.24 15.71 15.19 14.19 16.4"/>
  <path class="cls-2" d="M6.75,10.7C6.82,8.5,4.09,6.3,1.12,9" style="stroke: rgb(79, 159, 238);"/>
  <line class="cls-4" x1="6.78" y1="17.36" x2="6.78" y2="10.55" style="stroke: rgb(79, 159, 238);"/>
  <line class="cls-4" x1="2.46" y1="14.73" x2="2.46" y2="10.84" style="stroke: rgb(79, 159, 238);"/>
  <path class="cls-4" d="M2.46,11c0-1.06-.68-2-1.34-2" style="stroke: rgb(79, 159, 238);"/>
  <path class="cls-4" d="M7.35,10.27c0-1.64-.92-3.51-3.12-3.29" style="stroke: rgb(79, 159, 238);"/>
  <line class="cls-4" x1="7.35" y1="17.57" x2="7.35" y2="10.06" style="stroke: rgb(79, 159, 238);"/>
  <line class="cls-4" x1="11.53" y1="17.57" x2="11.39" y2="8.15" style="stroke: rgb(79, 159, 238);"/>
  <line class="cls-4" x1="12.38" y1="17.28" x2="12.02" y2="7.72" style="stroke: rgb(79, 159, 238);"/>
  <path class="cls-4" d="M12,7.83c0-1.56-1.45-3-3.95-2.94" style="stroke: rgb(79, 159, 238);"/>
  <line class="cls-4" x1="16.42" y1="14.34" x2="16.27" y2="6.05" style="stroke: rgb(79, 159, 238);"/>
  <path class="cls-4" d="M18.27,9a8.91,8.91,0,0,1-9,8.78A8.91,8.91,0,0,1,.21,9a8.92,8.92,0,0,1,9-8.79A8.91,8.91,0,0,1,18.27,9Z" style="stroke: rgb(79, 159, 238);"/>
</svg>